<?xml version="1.0" encoding="UTF-8" standalone="no"?>
<!-- Created with Inkscape (http://www.inkscape.org/) -->

<svg
   xmlns:dc="http://purl.org/dc/elements/1.1/"
   xmlns:cc="http://creativecommons.org/ns#"
   xmlns:rdf="http://www.w3.org/1999/02/22-rdf-syntax-ns#"
   xmlns:svg="http://www.w3.org/2000/svg"
   xmlns="http://www.w3.org/2000/svg"
   xmlns:sodipodi="http://sodipodi.sourceforge.net/DTD/sodipodi-0.dtd"
   xmlns:inkscape="http://www.inkscape.org/namespaces/inkscape"
   width="1052.3622"
   height="744.09448"
   id="svg2"
   version="1.1"
   inkscape:version="0.48.5 r10040"
   sodipodi:docname="logo_intermedio.svg"
   inkscape:export-filename="/home/carcam/Documentos/Proyectos/MasterMind Joomla/logo_intermedio.png"
   inkscape:export-xdpi="25.66"
   inkscape:export-ydpi="25.66">
  <defs
     id="defs4" />
  <sodipodi:namedview
     id="base"
     pagecolor="#ffffff"
     bordercolor="#666666"
     borderopacity="1.0"
     inkscape:pageopacity="0.0"
     inkscape:pageshadow="2"
     inkscape:zoom="0.35"
     inkscape:cx="-417.7352"
     inkscape:cy="514.28571"
     inkscape:document-units="px"
     inkscape:current-layer="layer1"
     showgrid="false"
     showguides="true"
     inkscape:window-width="1920"
     inkscape:window-height="1051"
     inkscape:window-x="0"
     inkscape:window-y="0"
     inkscape:window-maximized="1">
    <inkscape:grid
       type="xygrid"
       id="grid3817"
       empspacing="5"
       visible="true"
       enabled="true"
       snapvisiblegridlinesonly="true" />
  </sodipodi:namedview>
  <metadata
     id="metadata7">
    <rdf:RDF>
      <cc:Work
         rdf:about="">
        <dc:format>image/svg+xml</dc:format>
        <dc:type
           rdf:resource="http://purl.org/dc/dcmitype/StillImage" />
        <dc:title></dc:title>
      </cc:Work>
    </rdf:RDF>
  </metadata>
  <g
     inkscape:label="Capa 1"
     inkscape:groupmode="layer"
     id="layer1"
     transform="translate(0,-308.2677)">
    <rect
       style="fill:#ffffff;fill-opacity:0;stroke:#bbbbbb;stroke-width:32.20000000000000284;stroke-linejoin:round;stroke-miterlimit:4;stroke-opacity:1;stroke-dasharray:none;stroke-linecap:round"
       id="rect3755"
       width="974.28571"
       height="300"
       x="39.038239"
       y="530.31494" />
    <path
       sodipodi:type="arc"
       style="fill:none;stroke:#555555;stroke-width:23.84761981;stroke-miterlimit:4;stroke-opacity:1;stroke-dasharray:none"
       id="path2985"
       sodipodi:cx="162.85715"
       sodipodi:cy="282.36218"
       sodipodi:rx="162.85715"
       sodipodi:ry="152.85715"
       d="m 325.71429,282.36218 c 0,84.42067 -72.91362,152.85715 -162.85714,152.85715 C 72.913628,435.21933 0,366.78285 0,282.36218 0,197.94151 72.913628,129.50504 162.85715,129.50504 c 89.94352,0 162.85714,68.43647 162.85714,152.85714 z"
       transform="matrix(0.41932906,0,0,0.41932906,112.31897,561.91227)" />
    <path
       sodipodi:type="arc"
       style="fill:#555555;fill-opacity:1;stroke:#555555;stroke-width:32;stroke-miterlimit:4;stroke-opacity:1;stroke-dasharray:none"
       id="path2985-0"
       sodipodi:cx="162.85715"
       sodipodi:cy="282.36218"
       sodipodi:rx="162.85715"
       sodipodi:ry="152.85715"
       d="m 325.71429,282.36218 c 0,84.42067 -72.91362,152.85715 -162.85714,152.85715 C 72.913628,435.21933 0,366.78285 0,282.36218 0,197.94151 72.913628,129.50504 162.85715,129.50504 c 89.94352,0 162.85714,68.43647 162.85714,152.85714 z"
       transform="matrix(0.41932906,0,0,0.41932906,342.6999,561.91227)" />
    <path
       sodipodi:type="arc"
       style="fill:#555555;fill-opacity:1;stroke:#555555;stroke-width:32;stroke-miterlimit:4;stroke-opacity:1;stroke-dasharray:none"
       id="path2985-0-3"
       sodipodi:cx="162.85715"
       sodipodi:cy="282.36218"
       sodipodi:rx="162.85715"
       sodipodi:ry="152.85715"
       d="m 325.71429,282.36218 c 0,84.42067 -72.91362,152.85715 -162.85714,152.85715 C 72.913628,435.21933 0,366.78285 0,282.36218 0,197.94151 72.913628,129.50504 162.85715,129.50504 c 89.94352,0 162.85714,68.43647 162.85714,152.85714 z"
       transform="matrix(0.41932906,0,0,0.41932906,803.46174,561.91227)" />
    <path
       sodipodi:type="arc"
       style="fill:#555555;fill-opacity:1;stroke:#555555;stroke-width:32;stroke-miterlimit:4;stroke-opacity:1;stroke-dasharray:none"
       id="path2985-0-36"
       sodipodi:cx="162.85715"
       sodipodi:cy="282.36218"
       sodipodi:rx="162.85715"
       sodipodi:ry="152.85715"
       d="m 325.71429,282.36218 c 0,84.42067 -72.91362,152.85715 -162.85714,152.85715 C 72.913628,435.21933 0,366.78285 0,282.36218 0,197.94151 72.913628,129.50504 162.85715,129.50504 c 89.94352,0 162.85714,68.43647 162.85714,152.85714 z"
       transform="matrix(0.41932906,0,0,0.41932906,573.08079,561.91227)" />
  </g>
</svg>
