<?xml version="1.0" encoding="UTF-8" standalone="no"?>
<!-- Created with Inkscape (http://www.inkscape.org/) -->

<svg
   xmlns:dc="http://purl.org/dc/elements/1.1/"
   xmlns:cc="http://creativecommons.org/ns#"
   xmlns:rdf="http://www.w3.org/1999/02/22-rdf-syntax-ns#"
   xmlns:svg="http://www.w3.org/2000/svg"
   xmlns="http://www.w3.org/2000/svg"
   xmlns:sodipodi="http://sodipodi.sourceforge.net/DTD/sodipodi-0.dtd"
   xmlns:inkscape="http://www.inkscape.org/namespaces/inkscape"
   id="svg2"
   version="1.1"
   inkscape:version="0.48.5 r10040"
   width="425.41"
   height="161.09"
   xml:space="preserve"
   sodipodi:docname="logo_horizontal.svg"><metadata
     id="metadata8"><rdf:RDF><cc:Work
         rdf:about=""><dc:format>image/svg+xml</dc:format><dc:type
           rdf:resource="http://purl.org/dc/dcmitype/StillImage" /><dc:title /></cc:Work></rdf:RDF></metadata><defs
     id="defs6"><clipPath
       clipPathUnits="userSpaceOnUse"
       id="clipPath40"><path
         d="m 0,841.89 595.28,0 L 595.28,0 0,0 0,841.89 z"
         id="path42"
         inkscape:connector-curvature="0" /></clipPath></defs><sodipodi:namedview
     pagecolor="#ffffff"
     bordercolor="#666666"
     borderopacity="1"
     objecttolerance="10"
     gridtolerance="10"
     guidetolerance="10"
     inkscape:pageopacity="0"
     inkscape:pageshadow="2"
     inkscape:window-width="1755"
     inkscape:window-height="727"
     id="namedview4"
     showgrid="false"
     inkscape:zoom="1.4134465"
     inkscape:cx="385.71763"
     inkscape:cy="163.51247"
     inkscape:window-x="0"
     inkscape:window-y="0"
     inkscape:window-maximized="0"
     inkscape:current-layer="g10"
     height="400.09px" /><g
     id="g10"
     inkscape:groupmode="layer"
     inkscape:label="hepta_ok"
     transform="matrix(1.25,0,0,-1.25,0,161.08991)"><g
       id="g3325"
       transform="translate(-114.33046,-178.28762)"><g
         transform="translate(248.0827,264.6411)"
         id="g102"><path
           inkscape:connector-curvature="0"
           id="path104"
           style="fill:#2d4360;fill-opacity:1;fill-rule:nonzero;stroke:none"
           d="m 0,0 c -1.183,0 -2.117,-0.453 -2.804,-1.358 -0.686,-0.905 -1.11,-2.096 -1.27,-3.571 l 0.065,-0.109 7.842,0 0,0.569 c 0,1.359 -0.317,2.443 -0.953,3.253 C 2.245,-0.405 1.285,0 0,0 m 0.57,-19.67 c -3.418,0 -6.148,1.095 -8.193,3.285 -2.044,2.191 -3.066,4.973 -3.066,8.346 l 0,0.876 c 0,3.52 0.967,6.418 2.902,8.696 1.935,2.278 4.531,3.41 7.787,3.396 3.198,0 5.681,-0.964 7.448,-2.892 1.767,-1.928 2.65,-4.534 2.65,-7.82 l 0,-3.483 -14.15,0 -0.044,-0.13 c 0.117,-1.557 0.639,-2.837 1.566,-3.841 0.927,-1.003 2.187,-1.505 3.779,-1.505 1.416,0 2.592,0.143 3.526,0.427 0.935,0.285 1.957,0.734 3.067,1.347 l 1.73,-3.952 C 8.608,-17.713 7.345,-18.369 5.783,-18.889 4.22,-19.41 2.483,-19.67 0.57,-19.67" /></g><g
         transform="translate(270.8196,261.5964)"
         id="g106"><path
           inkscape:connector-curvature="0"
           id="path108"
           style="fill:#2d4360;fill-opacity:1;fill-rule:nonzero;stroke:none"
           d="m 0,0 0.131,0 3.637,7.535 7.228,0 -7.141,-11.719 7.382,-11.982 -7.207,0 -3.877,7.864 -3.877,-7.864 -7.228,0 7.382,11.982 -7.163,11.719 7.184,0 L 0,0 z" /></g><g
         transform="translate(292.4175,274.9363)"
         id="g110"><path
           inkscape:connector-curvature="0"
           id="path112"
           style="fill:#2d4360;fill-opacity:1;fill-rule:nonzero;stroke:none"
           d="m 0,0 0,-5.805 3.987,0 0,-4.49 -3.987,0 0,-12.07 c 0,-0.92 0.19,-1.577 0.57,-1.971 0.379,-0.394 0.89,-0.591 1.533,-0.591 0.336,0 0.624,0.018 0.865,0.054 0.241,0.037 0.522,0.099 0.843,0.187 l 0.548,-4.622 c -0.643,-0.219 -1.27,-0.384 -1.884,-0.493 -0.613,-0.11 -1.278,-0.164 -1.993,-0.164 -2.205,0 -3.903,0.606 -5.093,1.818 -1.19,1.212 -1.785,3.132 -1.785,5.761 l 0,12.091 -3.461,0 0,4.49 3.461,0 0,5.805 L 0,0 z" /></g><g
         transform="translate(310.4012,264.6411)"
         id="g114"><path
           inkscape:connector-curvature="0"
           id="path116"
           style="fill:#2d4360;fill-opacity:1;fill-rule:nonzero;stroke:none"
           d="m 0,0 c -1.183,0 -2.117,-0.453 -2.804,-1.358 -0.686,-0.905 -1.11,-2.096 -1.27,-3.571 l 0.065,-0.109 7.842,0 0,0.569 c 0,1.359 -0.317,2.443 -0.953,3.253 C 2.245,-0.405 1.285,0 0,0 m 0.57,-19.67 c -3.418,0 -6.148,1.095 -8.193,3.285 -2.044,2.191 -3.066,4.973 -3.066,8.346 l 0,0.876 c 0,3.52 0.967,6.418 2.902,8.696 1.935,2.278 4.531,3.41 7.787,3.396 3.198,0 5.681,-0.964 7.448,-2.892 1.767,-1.928 2.65,-4.534 2.65,-7.82 l 0,-3.483 -14.15,0 -0.044,-0.13 c 0.117,-1.557 0.639,-2.837 1.566,-3.841 0.927,-1.003 2.187,-1.505 3.779,-1.505 1.416,0 2.592,0.143 3.526,0.427 0.935,0.285 1.957,0.734 3.067,1.347 l 1.73,-3.952 C 8.608,-17.713 7.345,-18.369 5.783,-18.889 4.22,-19.41 2.483,-19.67 0.57,-19.67" /></g><g
         transform="translate(330.0715,269.1316)"
         id="g118"><path
           inkscape:connector-curvature="0"
           id="path120"
           style="fill:#2d4360;fill-opacity:1;fill-rule:nonzero;stroke:none"
           d="m 0,0 0.285,-3.395 c 0.788,1.212 1.759,2.154 2.913,2.825 1.154,0.672 2.446,1.008 3.877,1.008 2.395,0 4.264,-0.752 5.608,-2.256 1.343,-1.504 2.015,-3.863 2.015,-7.075 l 0,-14.808 -6.418,0 0,14.82 c 0,1.595 -0.321,2.725 -0.964,3.391 -0.642,0.666 -1.614,1 -2.913,1 -0.847,0 -1.607,-0.173 -2.278,-0.517 C 1.453,-5.351 0.891,-5.838 0.438,-6.466 l 0,-17.235 -6.396,0 L -5.958,0 0,0 z" /></g><g
         transform="translate(362.3588,251.9584)"
         id="g122"><path
           inkscape:connector-curvature="0"
           id="path124"
           style="fill:#2d4360;fill-opacity:1;fill-rule:nonzero;stroke:none"
           d="m 0,0 c 0,0.701 -0.34,1.307 -1.019,1.818 -0.679,0.511 -1.938,0.964 -3.778,1.358 -2.804,0.57 -4.918,1.413 -6.341,2.53 -1.424,1.117 -2.136,2.64 -2.136,4.567 0,2.045 0.858,3.779 2.574,5.203 1.715,1.423 4.012,2.135 6.889,2.135 3.022,0 5.428,-0.708 7.217,-2.124 C 5.195,14.07 6.053,12.281 5.98,10.12 l -0.044,-0.132 -6.177,0 c 0,0.95 -0.303,1.724 -0.909,2.322 -0.606,0.599 -1.493,0.898 -2.661,0.898 -1.037,0 -1.851,-0.251 -2.443,-0.755 -0.591,-0.504 -0.887,-1.136 -0.887,-1.895 0,-0.73 0.31,-1.329 0.931,-1.796 0.621,-0.467 1.88,-0.884 3.779,-1.249 2.92,-0.584 5.089,-1.442 6.505,-2.574 1.417,-1.131 2.125,-2.69 2.125,-4.676 0,-2.132 -0.913,-3.874 -2.738,-5.224 -1.825,-1.351 -4.235,-2.027 -7.229,-2.027 -3.154,0 -5.647,0.8 -7.48,2.399 -1.833,1.599 -2.705,3.421 -2.618,5.465 l 0.044,0.132 5.849,0 c 0.044,-1.271 0.46,-2.191 1.248,-2.76 0.789,-0.57 1.818,-0.855 3.089,-0.855 1.183,0 2.084,0.234 2.705,0.701 C -0.31,-1.438 0,-0.803 0,0" /></g><path
         inkscape:connector-curvature="0"
         id="path126"
         style="fill:#2d4360;fill-opacity:1;fill-rule:nonzero;stroke:none"
         d="m 379.401,245.431 -6.396,0 0,23.701 6.396,0 0,-23.701 z m 0,29.374 -6.396,0 0,4.797 6.396,0 0,-4.797 z" /><g
         transform="translate(390.0462,257.0512)"
         id="g128"><path
           inkscape:connector-curvature="0"
           id="path130"
           style="fill:#2d4360;fill-opacity:1;fill-rule:nonzero;stroke:none"
           d="m 0,0 c 0,-2.159 0.38,-3.89 1.139,-5.195 0.759,-1.304 1.986,-1.957 3.68,-1.957 1.65,0 2.859,0.656 3.625,1.968 0.767,1.312 1.15,3.041 1.15,5.184 l 0,0.459 c 0,2.1 -0.387,3.813 -1.161,5.14 C 7.659,6.926 6.44,7.59 4.775,7.59 3.125,7.59 1.917,6.923 1.15,5.588 0.383,4.254 0,2.545 0,0.459 L 0,0 z m -6.374,0.449 c 0,3.534 0.985,6.429 2.957,8.685 1.971,2.256 4.702,3.384 8.192,3.384 3.505,0 6.25,-1.124 8.236,-3.373 1.986,-2.249 2.979,-5.147 2.979,-8.696 l 0,-0.46 c 0,-3.563 -0.989,-6.465 -2.968,-8.707 -1.978,-2.242 -4.713,-3.362 -8.203,-3.362 -3.505,0 -6.246,1.12 -8.225,3.362 -1.979,2.242 -2.968,5.144 -2.968,8.707 l 0,0.46 z" /></g><g
         transform="translate(415.8279,269.1316)"
         id="g132"><path
           inkscape:connector-curvature="0"
           id="path134"
           style="fill:#2d4360;fill-opacity:1;fill-rule:nonzero;stroke:none"
           d="m 0,0 0.285,-3.395 c 0.788,1.212 1.759,2.154 2.913,2.825 1.154,0.672 2.446,1.008 3.877,1.008 2.395,0 4.264,-0.752 5.608,-2.256 1.343,-1.504 2.015,-3.863 2.015,-7.075 l 0,-14.808 -6.418,0 0,14.82 c 0,1.595 -0.321,2.725 -0.964,3.391 -0.642,0.666 -1.614,1 -2.913,1 -0.847,0 -1.607,-0.173 -2.278,-0.517 C 1.453,-5.351 0.891,-5.838 0.438,-6.466 l 0,-17.235 -6.396,0 L -5.958,0 0,0 z" /></g><g
         transform="translate(448.1152,251.9584)"
         id="g136"><path
           inkscape:connector-curvature="0"
           id="path138"
           style="fill:#2d4360;fill-opacity:1;fill-rule:nonzero;stroke:none"
           d="m 0,0 c 0,0.701 -0.34,1.307 -1.019,1.818 -0.679,0.511 -1.938,0.964 -3.778,1.358 -2.804,0.57 -4.918,1.413 -6.341,2.53 -1.424,1.117 -2.136,2.64 -2.136,4.567 0,2.045 0.858,3.779 2.574,5.203 1.715,1.423 4.012,2.135 6.889,2.135 3.022,0 5.428,-0.708 7.217,-2.124 C 5.195,14.07 6.053,12.281 5.98,10.12 l -0.044,-0.132 -6.177,0 c 0,0.95 -0.303,1.724 -0.909,2.322 -0.606,0.599 -1.493,0.898 -2.661,0.898 -1.037,0 -1.851,-0.251 -2.443,-0.755 -0.591,-0.504 -0.887,-1.136 -0.887,-1.895 0,-0.73 0.31,-1.329 0.931,-1.796 0.621,-0.467 1.88,-0.884 3.779,-1.249 2.92,-0.584 5.089,-1.442 6.505,-2.574 1.417,-1.131 2.125,-2.69 2.125,-4.676 0,-2.132 -0.913,-3.874 -2.738,-5.224 -1.825,-1.351 -4.235,-2.027 -7.229,-2.027 -3.154,0 -5.647,0.8 -7.48,2.399 -1.833,1.599 -2.705,3.421 -2.618,5.465 l 0.044,0.132 5.849,0 c 0.044,-1.271 0.46,-2.191 1.248,-2.76 0.789,-0.57 1.818,-0.855 3.089,-0.855 1.183,0 2.084,0.234 2.705,0.701 C -0.31,-1.438 0,-0.803 0,0" /></g><g
         transform="translate(306.4081,216.5002)"
         id="g140"><path
           inkscape:connector-curvature="0"
           id="path142"
           style="fill:#339099;fill-opacity:1;fill-rule:nonzero;stroke:none"
           d="m 0,0 0.004,0.277 0.35,0 c 0.962,0 1.743,0.765 1.772,1.719 l 0,7.064 -8.971,0 0,-7.043 c 0.018,-0.964 0.804,-1.74 1.772,-1.74 l 0.35,0 0.005,-0.277 -8.406,0 0.005,0.277 0.35,0 c 0.968,0 1.754,0.776 1.772,1.74 l 0,15.338 c -0.024,0.959 -0.807,1.74 -1.772,1.74 l -0.35,0 -0.004,0.276 8.404,0 -0.004,-0.276 -0.35,0 c -0.962,0 -1.745,-0.784 -1.772,-1.74 l 0,-7.13 8.971,0 0,7.13 c -0.036,0.948 -0.815,1.74 -1.771,1.74 l -0.35,0 -0.005,0.276 8.405,0 -0.004,-0.276 -0.35,0 c -0.969,0 -1.754,-0.776 -1.772,-1.74 l 0,-15.337 C 6.297,1.054 7.082,0.277 8.051,0.277 l 0.35,0 L 8.406,0.001 0,0 z" /></g><g
         transform="translate(333.0964,216.5002)"
         id="g144"><path
           inkscape:connector-curvature="0"
           id="path146"
           style="fill:#339099;fill-opacity:1;fill-rule:nonzero;stroke:none"
           d="m 0,0 -14.326,0 0.004,0.277 0.35,0 c 0.968,0 1.754,0.776 1.772,1.74 l 0,15.426 c -0.062,0.922 -0.829,1.652 -1.768,1.652 l -0.35,0 -0.005,0.274 10.608,0 c 1.193,0.011 2.789,0.287 3.303,0.504 l 0,-4.838 -0.279,0.005 0,0.325 c 0.003,1.664 -1.043,2.752 -2.703,2.822 l -4.655,0 0,-8.05 3.668,0 c 1.359,0.025 2.35,1.023 2.346,2.371 l 0,0.239 0.27,0.004 0,-6.394 -0.27,0.003 0,0.24 c 0.004,1.335 -0.972,2.328 -2.312,2.37 l -3.702,0 0,-7.787 3.632,0 c 2.764,0 4.558,1.717 5.415,4.464 l 0.277,0 L 0,0 z" /></g><g
         transform="translate(347.0979,235.8687)"
         id="g148"><path
           inkscape:connector-curvature="0"
           id="path150"
           style="fill:#339099;fill-opacity:1;fill-rule:nonzero;stroke:none"
           d="m 0,0 c 4.734,0 6.787,-2.279 6.882,-5.301 0.172,-4.772 -4.942,-7.435 -8.89,-4.844 l -0.003,0.261 c -0.017,0.019 3.333,-0.333 4.294,3.156 0.132,0.489 0.194,1.138 0.171,1.664 -0.078,2.359 -1.348,3.898 -3.562,3.898 l -1.846,0 0,-16.187 c 0.018,-0.963 0.804,-1.739 1.771,-1.739 l 0.352,0 0.004,-0.277 -8.409,0 0.004,0.277 0.351,0 c 0.968,0 1.754,0.776 1.773,1.74 l 0,15.484 c 0,0.933 -0.845,1.594 -1.767,1.594 l -0.347,0 L -9.226,0.001 0,0 z" /></g><g
         transform="translate(374.8136,231.5776)"
         id="g152"><path
           inkscape:connector-curvature="0"
           id="path154"
           style="fill:#339099;fill-opacity:1;fill-rule:nonzero;stroke:none"
           d="m 0,0 -0.279,0.004 0,0.325 c 0.003,1.688 -1.071,2.782 -2.769,2.824 l -3.717,0 0,-16.235 c 0.03,-0.954 0.811,-1.719 1.772,-1.719 l 0.351,0 0.004,-0.276 -8.41,0 0.005,0.276 0.35,0 c 0.953,0 1.729,0.752 1.771,1.695 l 0,16.259 -3.72,0 C -16.34,3.11 -17.414,2.016 -17.411,0.329 l 0,-0.325 L -17.69,0 l 0,4.823 c 0.51,-0.216 2.089,-0.49 3.279,-0.503 l 11.131,0 C -2.089,4.333 -0.511,4.607 0,4.823 L 0,0 z" /></g><g
         transform="translate(385.6927,223.0972)"
         id="g156"><path
           inkscape:connector-curvature="0"
           id="path158"
           style="fill:#339099;fill-opacity:1;fill-rule:nonzero;stroke:none"
           d="M 0,0 -2.707,6.794 -5.542,0 0,0 z M 6.737,-4.714 C 7.336,-5.847 8.283,-6.32 9.098,-6.32 l 0.231,0 0,-0.276 -8.815,0 0,0.274 0.243,0 c 0.714,0 1.492,0.629 1.069,1.737 l -1.362,3.419 -6.493,0 -1.415,-3.419 c -0.455,-1.108 0.344,-1.737 1.058,-1.737 l 0.243,0 0,-0.274 -5.933,0 0,0.276 0.249,0 c 0.787,0 1.741,0.46 2.328,1.56 L -3.1,9.703 c 0.197,0.42 1.293,2.819 1.361,3.624 l 0.249,0 8.227,-18.041 z" /></g><g
         transform="translate(114.1296,243.8907)"
         id="g160"><path
           inkscape:connector-curvature="0"
           id="path162"
           style="fill:#2d7177;fill-opacity:1;fill-rule:evenodd;stroke:none"
           d="m 0,0 54.91,31.701 0,31.703 L 0,31.701 0,0 z" /></g><g
         transform="translate(223.9215,243.8907)"
         id="g164"><path
           inkscape:connector-curvature="0"
           id="path166"
           style="fill:#339099;fill-opacity:1;fill-rule:evenodd;stroke:none"
           d="m 0,0 -54.91,31.701 0,31.703 L 0,31.701 0,0 z" /></g><g
         transform="translate(223.9215,275.6064)"
         id="g168"><path
           inkscape:connector-curvature="0"
           id="path170"
           style="fill:#283649;fill-opacity:1;fill-rule:evenodd;stroke:none"
           d="m 0,0 -54.91,-31.701 0,-31.703 L 0,-31.701 0,0 z" /></g><g
         transform="translate(169.0397,212.2021)"
         id="g172"><path
           inkscape:connector-curvature="0"
           id="path174"
           style="fill:#2d4360;fill-opacity:1;fill-rule:evenodd;stroke:none"
           d="m 0,0 -54.91,31.701 0,31.703 L 0,31.701 0,0 z" /></g><g
         transform="translate(169.0397,177.6685)"
         id="g176"><path
           inkscape:connector-curvature="0"
           id="path178"
           style="fill:#2d4360;fill-opacity:1;fill-rule:evenodd;stroke:none"
           d="m 0,0 -54.91,31.701 0,31.703 L 0,31.701 0,0 z" /></g><g
         transform="translate(196.472,225.1472)"
         id="g180"><path
           inkscape:connector-curvature="0"
           id="path182"
           style="fill:#283649;fill-opacity:1;fill-rule:evenodd;stroke:none"
           d="m 0,0 -27.461,-15.775 0,-31.704 L 0,-31.702 0,0 z" /></g></g></g></svg>