<?xml version="1.0" encoding="UTF-8" standalone="no"?>
<!-- Created with VectorDraw -->

<svg
   xmlns:dc="http://purl.org/dc/elements/1.1/"
   xmlns:cc="http://creativecommons.org/ns#"
   xmlns:rdf="http://www.w3.org/1999/02/22-rdf-syntax-ns#"
   xmlns:svg="http://www.w3.org/2000/svg"
   xmlns="http://www.w3.org/2000/svg"
   xmlns:sodipodi="http://sodipodi.sourceforge.net/DTD/sodipodi-0.dtd"
   xmlns:inkscape="http://www.inkscape.org/namespaces/inkscape"
   width="744.09448"
   height="524.40942"
   id="svg2"
   version="1.1"
   inkscape:version="0.48.5 r10040"
   sodipodi:docname="logo_Invertido_cc0000.svg"
   inkscape:export-filename="/home/carcam/Documentos/Proyectos/ManualesJoomla/Logos/logo_Invertido_cc0000_bolsa.png"
   inkscape:export-xdpi="268.06921"
   inkscape:export-ydpi="268.06921">
  <metadata
     id="metadata29">
    <rdf:RDF>
      <cc:Work
         rdf:about="">
        <dc:format>image/svg+xml</dc:format>
        <dc:type
           rdf:resource="http://purl.org/dc/dcmitype/StillImage" />
        <dc:title></dc:title>
      </cc:Work>
    </rdf:RDF>
  </metadata>
  <defs
     id="defs27" />
  <sodipodi:namedview
     pagecolor="#ffffff"
     bordercolor="#666666"
     borderopacity="1"
     objecttolerance="10"
     gridtolerance="10"
     guidetolerance="10"
     inkscape:pageopacity="0"
     inkscape:pageshadow="2"
     inkscape:window-width="1861"
     inkscape:window-height="890"
     id="namedview25"
     showgrid="false"
     inkscape:zoom="0.59"
     inkscape:cx="150.01465"
     inkscape:cy="221.95776"
     inkscape:window-x="0"
     inkscape:window-y="14"
     inkscape:window-maximized="0"
     inkscape:current-layer="Background" />
  <g
     inkscape:label="Background"
     inkscape:groupmode="layer"
     id="Background"
     transform="translate(0,124.40952)">
    <flowRoot
       xml:space="preserve"
       id="flowRoot3790"
       style="font-size:40px;font-style:normal;font-weight:normal;line-height:125%;letter-spacing:0px;word-spacing:0px;fill:#000000;fill-opacity:1;stroke:none;font-family:Sans"><flowRegion
         id="flowRegion3792"><rect
           id="rect3794"
           width="220.33899"
           height="244.06779"
           x="181.35593"
           y="79.661018" /></flowRegion><flowPara
         id="flowPara3796" /></flowRoot>    <path
       style="fill:#ffffff;fill-opacity:1;stroke:#ffffff;stroke-width:18.01424217;stroke-linecap:butt;stroke-linejoin:miter;stroke-miterlimit:4;stroke-opacity:1;stroke-dasharray:none"
       d="m 536.12845,-26.285965 c 90.61956,90.619533 90.61956,237.542805 0,328.162355 -90.61954,90.6195 -237.54286,90.6195 -328.16242,0 -90.61956,-90.61955 -90.61956,-237.542822 0,-328.162355 90.61956,-90.619535 237.54288,-90.619535 328.16242,0 z"
       id="path5-6"
       inkscape:connector-curvature="0" />
    <path
       style="fill:none;stroke:#cc0000;stroke-width:25.70286369;stroke-linecap:butt;stroke-linejoin:miter;stroke-miterlimit:4;stroke-opacity:1;stroke-dasharray:none"
       d="m 541.0707,-31.22822 c 93.34909,93.349066 93.34909,244.69777 0,338.04685 -93.34907,93.34903 -244.69783,93.34903 -338.04692,0 -93.34909,-93.34908 -93.34909,-244.697784 0,-338.04685 93.34909,-93.34906 244.69785,-93.34906 338.04692,0 z"
       id="path5"
       inkscape:connector-curvature="0" />
    <g
       transform="matrix(1.1097082,0,0,1.1097082,453.60261,-42.80982)"
       style="font-size:350px;font-style:normal;font-weight:normal;line-height:125%;letter-spacing:0px;word-spacing:0px;fill:#cc0000;fill-opacity:1;stroke:none;font-family:Sans"
       id="flowRoot3782-3">
      <g
         id="g3791"
         style="fill:#cc0000;fill-opacity:1">
        <g
           id="flowRoot3782"
           style="font-size:350px;font-style:normal;font-weight:normal;line-height:125%;letter-spacing:0px;word-spacing:0px;fill:#cc0000;fill-opacity:1;stroke:none;font-family:Sans"
           transform="translate(-164.19094,-68.674998)">
          <path
             inkscape:connector-curvature="0"
             id="path3871"
             style="font-variant:normal;font-stretch:normal;fill:#cc0000;fill-opacity:1;font-family:Bowhouse;-inkscape-font-specification:Bowhouse"
             d="m 159.59375,280.875 c 6.99999,0 12.6,-5.60001 12.6,-12.6 l 0,-52.85 c 0,-36.04996 -29.40004,-65.45 -65.45,-65.45 -21.699978,0 -40.950012,10.85002 -52.5,26.95 -11.899988,-16.09998 -31.150022,-26.95 -52.85,-26.95 -36.049964,0 -65.45,29.40004 -65.45,65.45 l 0,52.85 c 0,6.99999 5.600007,12.6 12.6,12.6 6.999993,0 12.6,-5.60001 12.6,-12.6 l 0,-52.85 c 0,-22.04998 18.200022,-40.25 40.25,-40.25 22.049978,0 39.9,18.20002 39.9,40.25 l 0,52.85 c 0,6.99999 5.950007,12.6 12.95,12.6 6.649993,0 12.6,-5.60001 12.6,-12.6 l 0,-52.85 c 0,-22.04998 17.850022,-40.25 39.9,-40.25 22.04998,0 40.25,18.20002 40.25,40.25 l 0,52.85 c 0,6.99999 5.60001,12.6 12.6,12.6" />
        </g>
        <path
           inkscape:connector-curvature="0"
           id="path3868"
           style="font-variant:normal;font-stretch:normal;fill:#cc0000;fill-opacity:1;font-family:Bowhouse;-inkscape-font-specification:Bowhouse"
           d="m 1.39375,280.875 c 36.049964,0 65.45,-29.40004 65.45,-65.45 l 0,-158.2 c 0,-6.999993 -5.950007,-12.6 -12.6,-12.6 -6.999993,0 -12.95,5.600007 -12.95,12.6 l 0,158.2 c 0,22.04998 -17.850022,40.25 -39.9,40.25 -22.049978,0 -40.25,-18.20002 -40.25,-40.25 0,-6.99999 -5.600007,-12.6 -12.6,-12.6 -6.999993,0 -12.6,5.60001 -12.6,12.6 0,36.04996 29.400036,65.45 65.45,65.45" />
      </g>
    </g>
  </g>
</svg>
