<?xml version="1.0" encoding="UTF-8" standalone="no"?>
<!-- Created with Inkscape (http://www.inkscape.org/) -->

<svg
   xmlns:dc="http://purl.org/dc/elements/1.1/"
   xmlns:cc="http://creativecommons.org/ns#"
   xmlns:rdf="http://www.w3.org/1999/02/22-rdf-syntax-ns#"
   xmlns:svg="http://www.w3.org/2000/svg"
   xmlns="http://www.w3.org/2000/svg"
   xmlns:sodipodi="http://sodipodi.sourceforge.net/DTD/sodipodi-0.dtd"
   xmlns:inkscape="http://www.inkscape.org/namespaces/inkscape"
   width="1400"
   height="1400"
   id="svg2"
   version="1.1"
   inkscape:version="0.48.5 r10040"
   sodipodi:docname="logo-con-texto.svg"
   inkscape:export-filename="/home/carcam/Documentos/Proyectos/MasterMind Joomla/mastermind-itunes.png"
   inkscape:export-xdpi="90"
   inkscape:export-ydpi="90">
  <defs
     id="defs4" />
  <sodipodi:namedview
     id="base"
     pagecolor="#ffffff"
     bordercolor="#666666"
     borderopacity="1.0"
     inkscape:pageopacity="1"
     inkscape:pageshadow="2"
     inkscape:zoom="0.43840098"
     inkscape:cx="465.93683"
     inkscape:cy="509.00379"
     inkscape:document-units="px"
     inkscape:current-layer="layer1"
     showgrid="false"
     showguides="true"
     inkscape:window-width="1920"
     inkscape:window-height="1051"
     inkscape:window-x="1376"
     inkscape:window-y="0"
     inkscape:window-maximized="1">
    <inkscape:grid
       type="xygrid"
       id="grid3817"
       empspacing="5"
       visible="true"
       enabled="true"
       snapvisiblegridlinesonly="true" />
  </sodipodi:namedview>
  <metadata
     id="metadata7">
    <rdf:RDF>
      <cc:Work
         rdf:about="">
        <dc:format>image/svg+xml</dc:format>
        <dc:type
           rdf:resource="http://purl.org/dc/dcmitype/StillImage" />
        <dc:title></dc:title>
      </cc:Work>
    </rdf:RDF>
  </metadata>
  <g
     inkscape:label="Capa 1"
     inkscape:groupmode="layer"
     id="layer1"
     transform="translate(0,347.63725)">
    <g
       id="g4018"
       transform="matrix(0.91763257,0,0,0.91763257,57.657205,-74.784122)">
      <g
         id="g4011">
        <rect
           style="fill:#ffffff;fill-opacity:0;stroke:#bbbbbb;stroke-width:45.83560181;stroke-linecap:round;stroke-linejoin:round;stroke-miterlimit:4;stroke-opacity:1;stroke-dasharray:none"
           id="rect3755"
           width="1338.8239"
           height="442.36246"
           x="30.58807"
           y="58.176529" />
        <path
           sodipodi:type="arc"
           style="fill:none;stroke:#555555;stroke-width:23.84762001;stroke-miterlimit:4;stroke-opacity:1;stroke-dasharray:none"
           id="path2985"
           sodipodi:cx="162.85715"
           sodipodi:cy="282.36218"
           sodipodi:rx="162.85715"
           sodipodi:ry="152.85715"
           d="m 325.71429,282.36218 c 0,84.42067 -72.91362,152.85715 -162.85714,152.85715 C 72.913628,435.21933 0,366.78285 0,282.36218 0,197.94151 72.913628,129.50504 162.85715,129.50504 c 89.94352,0 162.85714,68.43647 162.85714,152.85714 z"
           transform="matrix(0.57622497,0,0,0.6183181,131.28748,104.76807)" />
        <path
           sodipodi:type="arc"
           style="fill:#555555;fill-opacity:1;stroke:#555555;stroke-width:32;stroke-miterlimit:4;stroke-opacity:1;stroke-dasharray:none"
           id="path2985-0"
           sodipodi:cx="162.85715"
           sodipodi:cy="282.36218"
           sodipodi:rx="162.85715"
           sodipodi:ry="152.85715"
           d="m 325.71429,282.36218 c 0,84.42067 -72.91362,152.85715 -162.85714,152.85715 C 72.913628,435.21933 0,366.78285 0,282.36218 0,197.94151 72.913628,129.50504 162.85715,129.50504 c 89.94352,0 162.85714,68.43647 162.85714,152.85714 z"
           transform="matrix(0.57622497,0,0,0.6183181,447.8676,104.76807)" />
        <path
           sodipodi:type="arc"
           style="fill:#555555;fill-opacity:1;stroke:#555555;stroke-width:32;stroke-miterlimit:4;stroke-opacity:1;stroke-dasharray:none"
           id="path2985-0-3"
           sodipodi:cx="162.85715"
           sodipodi:cy="282.36218"
           sodipodi:rx="162.85715"
           sodipodi:ry="152.85715"
           d="m 325.71429,282.36218 c 0,84.42067 -72.91362,152.85715 -162.85714,152.85715 C 72.913628,435.21933 0,366.78285 0,282.36218 0,197.94151 72.913628,129.50504 162.85715,129.50504 c 89.94352,0 162.85714,68.43647 162.85714,152.85714 z"
           transform="matrix(0.57622497,0,0,0.6183181,1081.0278,104.76807)" />
        <path
           sodipodi:type="arc"
           style="fill:#555555;fill-opacity:1;stroke:#555555;stroke-width:32;stroke-miterlimit:4;stroke-opacity:1;stroke-dasharray:none"
           id="path2985-0-36"
           sodipodi:cx="162.85715"
           sodipodi:cy="282.36218"
           sodipodi:rx="162.85715"
           sodipodi:ry="152.85715"
           d="m 325.71429,282.36218 c 0,84.42067 -72.91362,152.85715 -162.85714,152.85715 C 72.913628,435.21933 0,366.78285 0,282.36218 0,197.94151 72.913628,129.50504 162.85715,129.50504 c 89.94352,0 162.85714,68.43647 162.85714,152.85714 z"
           transform="matrix(0.57622497,0,0,0.6183181,764.44766,104.76807)" />
      </g>
      <g
         id="flowRoot3000"
         style="font-size:40px;font-style:normal;font-weight:normal;line-height:125%;letter-spacing:0px;word-spacing:0px;fill:#555555;fill-opacity:1;stroke:none;font-family:Sans"
         transform="matrix(1.0152565,0,0,1.0152565,-2.7566243,8.10754)">
        <path
           inkscape:connector-curvature="0"
           id="path3023"
           style="font-size:123px;fill:#555555;fill-opacity:1"
           d="m 37.85125,648.46688 -14.514,0 0,-85.977 22.632,0 25.953,53.997 25.953,-53.997 22.509,0 0,85.977 -14.514,0 0,-67.158 -30.012,59.655 -8.118,0 -29.889,-59.655 0,67.158" />
        <path
           inkscape:connector-curvature="0"
           id="path3025"
           style="font-size:123px;fill:#555555;fill-opacity:1"
           d="m 195.22014,648.46688 -12.546,0 0,-8.733 c -5.41204,6.478 -12.66904,9.717 -21.771,9.717 -6.80602,0 -12.46402,-1.927 -16.974,-5.781 -4.42801,-3.85399 -6.642,-8.97899 -6.642,-15.375 0,-6.47797 2.37799,-11.31597 7.134,-14.514 4.75598,-3.19796 11.19298,-4.79696 19.311,-4.797 l 17.835,0 0,-2.46 c -5e-5,-8.69195 -4.83804,-13.03795 -14.514,-13.038 -6.06803,5e-5 -12.38202,2.21405 -18.942,6.642 l -6.15,-8.61 c 7.95398,-6.31394 16.97397,-9.47093 27.06,-9.471 7.70796,7e-5 13.98095,1.96806 18.819,5.904 4.91994,3.85406 7.37994,9.96305 7.38,18.327 l 0,42.189 m -13.776,-24.354 0,-5.535 -15.498,0 c -9.92202,3e-5 -14.88302,3.11603 -14.883,9.348 -2e-5,3.19802 1.22998,5.65801 3.69,7.38 2.45998,1.64001 5.86297,2.46001 10.209,2.46 4.42796,10e-6 8.28196,-1.22999 11.562,-3.69 3.27995,-2.45998 4.91995,-5.78098 4.92,-9.963" />
        <path
           inkscape:connector-curvature="0"
           id="path3027"
           style="font-size:123px;fill:#555555;fill-opacity:1"
           d="m 261.13469,628.90988 c -6e-5,6.23201 -2.25506,11.23401 -6.765,15.006 -4.51005,3.69 -10.29104,5.535 -17.343,5.535 -4.75603,0 -9.71703,-0.861 -14.883,-2.583 -5.08402,-1.722 -9.59401,-4.141 -13.53,-7.257 l 6.642,-10.701 c 7.62598,5.74001 15.00597,8.61001 22.14,8.61 3.11596,1e-5 5.57596,-0.69699 7.38,-2.091 1.80396,-1.47599 2.70595,-3.32099 2.706,-5.535 -5e-5,-3.27998 -4.34604,-6.23198 -13.038,-8.856 -0.65603,-0.24597 -1.14803,-0.40997 -1.476,-0.492 -13.61202,-3.68997 -20.41801,-9.83996 -20.418,-18.45 -1e-5,-6.06795 2.33699,-10.90594 7.011,-14.514 4.75598,-3.68994 10.90597,-5.53493 18.45,-5.535 7.54396,7e-5 14.67795,2.21406 21.402,6.642 l -5.166,10.209 c -5.33005,-3.52595 -11.11104,-5.28895 -17.343,-5.289 -3.28003,5e-5 -5.94503,0.61505 -7.995,1.845 -2.05002,1.14805 -3.07502,2.91105 -3.075,5.289 -2e-5,2.13204 1.06598,3.69004 3.198,4.674 1.47597,0.73804 3.52597,1.43504 6.15,2.091 2.70596,0.65604 5.08396,1.31204 7.134,1.968 2.04996,0.65604 4.01796,1.39404 5.904,2.214 1.96795,0.82003 4.05895,1.96803 6.273,3.444 4.42794,2.95203 6.64194,7.54402 6.642,13.776" />
        <path
           inkscape:connector-curvature="0"
           id="path3029"
           style="font-size:123px;fill:#555555;fill-opacity:1"
           d="m 293.71239,594.10088 0,33.21 c -3e-5,3.11602 0.81997,5.61701 2.46,7.503 1.63997,1.80401 3.93597,2.70601 6.888,2.706 2.95196,1e-5 5.78096,-1.43499 8.487,-4.305 l 5.658,9.717 c -4.83804,4.346 -10.20904,6.519 -16.113,6.519 -5.82203,0 -10.82402,-2.009 -15.006,-6.027 -4.10001,-4.09999 -6.15001,-9.59399 -6.15,-16.482 l 0,-32.841 -8.241,0 0,-11.07 8.241,0 0,-20.541 13.776,0 0,20.541 17.22,0 0,11.07 -17.22,0" />
        <path
           inkscape:connector-curvature="0"
           id="path3031"
           style="font-size:123px;fill:#555555;fill-opacity:1"
           d="m 389.03355,621.77588 -51.291,0 c 0.32798,4.75602 2.50097,8.61002 6.519,11.562 4.01797,2.87001 8.60996,4.30501 13.776,4.305 8.19995,10e-6 14.43194,-2.58299 18.696,-7.749 l 7.872,8.61 c -7.05206,7.298 -16.23605,10.947 -27.552,10.947 -9.18403,0 -17.01502,-3.034 -23.493,-9.102 -6.39601,-6.14999 -9.59401,-14.34998 -9.594,-24.6 -10e-6,-10.33196 3.27999,-18.53195 9.84,-24.6 6.55997,-6.06794 14.26797,-9.10193 23.124,-9.102 8.93795,7e-5 16.52294,2.70606 22.755,8.118 6.23193,5.33005 9.34793,12.71004 9.348,22.14 l 0,9.471 m -51.291,-10.824 37.515,0 c -6e-5,-5.49396 -1.72206,-9.71695 -5.166,-12.669 -3.44405,-2.95195 -7.70805,-4.42795 -12.792,-4.428 -5.00204,5e-5 -9.51203,1.55805 -13.53,4.674 -4.01802,3.03405 -6.02702,7.17504 -6.027,12.423" />
        <path
           inkscape:connector-curvature="0"
           id="path3033"
           style="font-size:123px;fill:#555555;fill-opacity:1"
           d="m 438.37961,595.94588 c -6.80604,5e-5 -11.93103,2.21405 -15.375,6.642 -3.44403,4.42804 -5.16602,10.37303 -5.166,17.835 l 0,28.044 -13.776,0 0,-65.436 13.776,0 0,13.161 c 2.21397,-4.09995 5.20697,-7.46194 8.979,-10.086 3.85396,-2.62394 7.91296,-3.97694 12.177,-4.059 l 0.123,13.899 c -0.24605,5e-5 -0.49205,5e-5 -0.738,0" />
        <path
           inkscape:connector-curvature="0"
           id="path3035"
           style="font-size:123px;fill:#555555;fill-opacity:1"
           d="m 466.60619,613.04288 0,35.424 -13.776,0 0,-65.436 13.776,0 0,11.931 c 1.96797,-4.01794 4.91997,-7.17494 8.856,-9.471 4.01796,-2.29594 8.32296,-3.44393 12.915,-3.444 10.33194,7e-5 17.34293,4.26406 21.033,12.792 6.47792,-8.52794 14.55492,-12.79193 24.231,-12.792 7.3799,7e-5 13.32489,2.25506 17.835,6.765 4.59188,4.51005 6.88788,11.02905 6.888,19.557 l 0,40.098 -13.776,0 0,-35.916 c -1e-4,-12.05395 -5.0021,-18.08095 -15.006,-18.081 -4.67408,5e-5 -8.77408,1.51705 -12.3,4.551 -3.44407,2.95205 -5.24807,7.29804 -5.412,13.038 l 0,36.408 -13.776,0 0,-35.916 c -6e-5,-6.23196 -1.10706,-10.78295 -3.321,-13.653 -2.21405,-2.95195 -5.69905,-4.42795 -10.455,-4.428 -4.75604,5e-5 -8.89704,1.59905 -12.423,4.797 -3.52603,3.11604 -5.28903,7.70804 -5.289,13.776" />
        <path
           inkscape:connector-curvature="0"
           id="path3037"
           style="font-size:123px;fill:#555555;fill-opacity:1"
           d="m 591.28783,648.46688 -13.776,0 0,-65.436 13.776,0 0,65.436 m -12.915,-78.474 c -1.72201,-1.72192 -2.58301,-3.77192 -2.583,-6.15 -1e-5,-2.37791 0.86099,-4.42791 2.583,-6.15 1.72199,-1.72191 3.77198,-2.58291 6.15,-2.583 2.37798,9e-5 4.42798,0.86109 6.15,2.583 1.72197,1.72209 2.58297,3.77209 2.583,6.15 -3e-5,2.37808 -0.86103,4.42808 -2.583,6.15 -1.72202,1.72208 -3.77202,2.58307 -6.15,2.583 -2.37802,7e-5 -4.42801,-0.86092 -6.15,-2.583" />
        <path
           inkscape:connector-curvature="0"
           id="path3039"
           style="font-size:123px;fill:#555555;fill-opacity:1"
           d="m 624.92064,613.04288 0,35.424 -13.776,0 0,-65.436 13.776,0 0,11.931 c 2.21397,-4.01794 5.24797,-7.17494 9.102,-9.471 3.93596,-2.29594 8.15896,-3.44393 12.669,-3.444 7.37995,7e-5 13.32494,2.25506 17.835,6.765 4.59193,4.51005 6.88793,11.02905 6.888,19.557 l 0,40.098 -13.776,0 0,-35.916 c -6e-5,-12.05395 -5.00205,-18.08095 -15.006,-18.081 -4.75604,5e-5 -8.89703,1.59905 -12.423,4.797 -3.52602,3.11604 -5.28902,7.70804 -5.289,13.776" />
        <path
           inkscape:connector-curvature="0"
           id="path3041"
           style="font-size:123px;fill:#555555;fill-opacity:1"
           d="m 717.35322,649.45088 c -8.28203,0 -15.49802,-3.116 -21.648,-9.348 -6.15001,-6.23199 -9.22501,-14.43198 -9.225,-24.6 -10e-6,-10.16796 3.15699,-18.28595 9.471,-24.354 6.31398,-6.06794 13.81697,-9.10193 22.509,-9.102 8.77395,7e-5 15.82595,3.69006 21.156,11.07 l 0,-35.916 13.776,0 0,91.266 -13.776,0 0,-9.84 c -5.08406,7.216 -12.50505,10.824 -22.263,10.824 m -17.097,-33.333 c -2e-5,6.23202 2.00898,11.31602 6.027,15.252 4.01797,3.93601 8.73296,5.90401 14.145,5.904 5.41195,1e-5 10.00395,-1.96799 13.776,-5.904 3.77194,-4.01798 5.65794,-9.14298 5.658,-15.375 -6e-5,-6.23196 -1.88606,-11.43896 -5.658,-15.621 -3.77205,-4.18195 -8.40505,-6.27295 -13.899,-6.273 -5.49404,5e-5 -10.20903,2.09105 -14.145,6.273 -3.93602,4.18204 -5.90402,9.43004 -5.904,15.744" />
        <path
           inkscape:connector-curvature="0"
           id="path3043"
           style="font-size:123px;fill:#555555;fill-opacity:1"
           d="m 811.73266,575.52788 0,-13.038 41.82,0 0,56.703 c -6e-5,10.00402 -2.54206,17.50701 -7.626,22.509 -5.08405,5.002 -11.60304,7.503 -19.557,7.503 -10.00402,0 -18.53201,-3.526 -25.584,-10.578 l 8.241,-11.439 c 5.57598,5.33001 11.02897,7.99501 16.359,7.995 3.77196,1e-5 6.96996,-1.27099 9.594,-3.813 2.70596,-2.54198 4.05895,-6.35498 4.059,-11.439 l 0,-44.403 -27.306,0" />
        <path
           inkscape:connector-curvature="0"
           id="path3045"
           style="font-size:123px;fill:#555555;fill-opacity:1"
           d="m 888.97281,631.24688 c 3.93597,3.93601 8.89697,5.90401 14.883,5.904 5.98596,10e-6 10.90595,-1.96799 14.76,-5.904 3.93594,-4.01798 5.90394,-9.18398 5.904,-15.498 -6e-5,-6.31396 -1.96806,-11.43896 -5.904,-15.375 -3.85405,-4.01795 -8.77404,-6.02695 -14.76,-6.027 -5.98603,5e-5 -10.94703,2.00905 -14.883,6.027 -3.85402,3.93604 -5.78102,9.06104 -5.781,15.375 -2e-5,6.31402 1.92698,11.48002 5.781,15.498 m 39.483,8.487 c -6.56006,6.478 -14.76005,9.717 -24.6,9.717 -9.84003,0 -18.04002,-3.239 -24.6,-9.717 -6.56001,-6.55999 -9.84,-14.55498 -9.84,-23.985 0,-9.42996 3.27999,-17.38395 9.84,-23.862 6.55998,-6.55994 14.75997,-9.83993 24.6,-9.84 9.83995,7e-5 18.03994,3.28006 24.6,9.84 6.55993,6.47805 9.83993,14.43204 9.84,23.862 -7e-5,9.43002 -3.28007,17.42501 -9.84,23.985" />
        <path
           inkscape:connector-curvature="0"
           id="path3047"
           style="font-size:123px;fill:#555555;fill-opacity:1"
           d="m 969.21109,631.24688 c 3.93597,3.93601 8.89697,5.90401 14.883,5.904 5.98596,10e-6 10.90595,-1.96799 14.76,-5.904 3.93591,-4.01798 5.90391,-9.18398 5.90401,-15.498 -10e-5,-6.31396 -1.9681,-11.43896 -5.90401,-15.375 -3.85405,-4.01795 -8.77404,-6.02695 -14.76,-6.027 -5.98603,5e-5 -10.94703,2.00905 -14.883,6.027 -3.85402,3.93604 -5.78102,9.06104 -5.781,15.375 -2e-5,6.31402 1.92698,11.48002 5.781,15.498 m 39.48301,8.487 c -6.5601,6.478 -14.76006,9.717 -24.60001,9.717 -9.84003,0 -18.04002,-3.239 -24.6,-9.717 -6.56001,-6.55999 -9.84,-14.55498 -9.84,-23.985 0,-9.42996 3.27999,-17.38395 9.84,-23.862 6.55998,-6.55994 14.75997,-9.83993 24.6,-9.84 9.83995,7e-5 18.03991,3.28006 24.60001,9.84 6.5599,6.47805 9.8399,14.43204 9.84,23.862 -10e-5,9.43002 -3.2801,17.42501 -9.84,23.985" />
        <path
           inkscape:connector-curvature="0"
           id="path3049"
           style="font-size:123px;fill:#555555;fill-opacity:1"
           d="m 1047.9734,613.04288 0,35.424 -13.776,0 0,-65.436 13.776,0 0,11.931 c 1.9679,-4.01794 4.9199,-7.17494 8.856,-9.471 4.0179,-2.29594 8.3229,-3.44393 12.915,-3.444 10.3319,7e-5 17.3429,4.26406 21.033,12.792 6.4779,-8.52794 14.5549,-12.79193 24.231,-12.792 7.3799,7e-5 13.3249,2.25506 17.835,6.765 4.5919,4.51005 6.8879,11.02905 6.888,19.557 l 0,40.098 -13.776,0 0,-35.916 c -10e-5,-12.05395 -5.0021,-18.08095 -15.006,-18.081 -4.6741,5e-5 -8.7741,1.51705 -12.3,4.551 -3.4441,2.95205 -5.2481,7.29804 -5.412,13.038 l 0,36.408 -13.776,0 0,-35.916 c -10e-5,-6.23196 -1.1071,-10.78295 -3.321,-13.653 -2.2141,-2.95195 -5.6991,-4.42795 -10.455,-4.428 -4.7561,5e-5 -8.8971,1.59905 -12.423,4.797 -3.5261,3.11604 -5.289,7.70804 -5.289,13.776" />
        <path
           inkscape:connector-curvature="0"
           id="path3051"
           style="font-size:123px;fill:#555555;fill-opacity:1"
           d="m 1172.655,648.46688 -13.776,0 0,-91.266 13.776,0 0,91.266" />
        <path
           inkscape:connector-curvature="0"
           id="path3053"
           style="font-size:123px;fill:#555555;fill-opacity:1"
           d="m 1245.5248,648.46688 -12.546,0 0,-8.733 c -5.412,6.478 -12.669,9.717 -21.771,9.717 -6.806,0 -12.464,-1.927 -16.974,-5.781 -4.428,-3.85399 -6.642,-8.97899 -6.642,-15.375 0,-6.47797 2.378,-11.31597 7.134,-14.514 4.756,-3.19796 11.193,-4.79696 19.311,-4.797 l 17.835,0 0,-2.46 c 0,-8.69195 -4.838,-13.03795 -14.514,-13.038 -6.068,5e-5 -12.382,2.21405 -18.942,6.642 l -6.15,-8.61 c 7.954,-6.31394 16.974,-9.47093 27.06,-9.471 7.708,7e-5 13.981,1.96806 18.819,5.904 4.92,3.85406 7.38,9.96305 7.38,18.327 l 0,42.189 m -13.776,-24.354 0,-5.535 -15.498,0 c -9.922,3e-5 -14.883,3.11603 -14.883,9.348 0,3.19802 1.23,5.65801 3.69,7.38 2.46,1.64001 5.863,2.46001 10.209,2.46 4.428,10e-6 8.282,-1.22999 11.562,-3.69 3.28,-2.45998 4.92,-5.78098 4.92,-9.963" />
        <path
           inkscape:connector-curvature="0"
           id="path3055"
           style="font-size:123px;fill:#555555;fill-opacity:1"
           d="m 1264.4534,560.39888 17.22,0 0,15.867 -3.69,44.403 -9.84,0 -3.69,-44.403 0,-15.867 m 8.61,89.052 c -2.46,0 -4.592,-0.902 -6.396,-2.706 -1.804,-1.804 -2.706,-3.936 -2.706,-6.396 0,-2.54199 0.902,-4.71499 2.706,-6.519 1.804,-1.80398 3.936,-2.70598 6.396,-2.706 2.542,2e-5 4.715,0.90202 6.519,2.706 1.8039,1.80401 2.7059,3.97701 2.706,6.519 -10e-5,2.46 -0.9021,4.592 -2.706,6.396 -1.804,1.804 -3.977,2.706 -6.519,2.706" />
        <path
           inkscape:connector-curvature="0"
           id="path3057"
           style="font-size:100px;baseline-shift:super;fill:#555555;fill-opacity:1"
           d="m 1358.3348,540.66688 c 7.0666,7.06672 10.5999,15.56671 10.6,25.5 -10e-5,9.93336 -3.5334,18.46668 -10.6,25.6 -7.0668,7.13333 -15.6334,10.7 -25.7,10.7 -10.0667,0 -18.6001,-3.53333 -25.6,-10.6 -7,-7.06665 -10.5,-15.56664 -10.5,-25.5 0,-9.93329 3.5333,-18.46662 10.6,-25.6 7.0666,-7.13327 15.5999,-10.69993 25.6,-10.7 9.9999,7e-5 18.5332,3.5334 25.6,10.6 m -3.1,48.1 c 6.1999,-6.26665 9.2999,-13.76664 9.3,-22.5 -10e-5,-8.73329 -3.0668,-16.19995 -9.2,-22.4 -6.0668,-6.19994 -13.5334,-9.29994 -22.4,-9.3 -8.8667,6e-5 -16.3667,3.13339 -22.5,9.4 -6.1334,6.20005 -9.2,13.70004 -9.2,22.5 0,8.73336 3.0333,16.20002 9.1,22.4 6.0666,6.2 13.5333,9.3 22.4,9.3 8.8666,0 16.3666,-3.13333 22.5,-9.4 m -5,-29.5 c -10e-5,6.4667 -2.8334,10.53336 -8.5,12.2 l 10.4,14.1 -8.4,0 -9.4,-13.1 -8.6,0 0,13.1 -6.8,0 0,-39.1 14.7,0 c 5.9333,5e-5 10.1666,1.03338 12.7,3.1 2.5999,2.00005 3.8999,5.23338 3.9,9.7 m -16.4,7.2 c 3.7333,3e-5 6.2666,-0.56663 7.6,-1.7 1.3999,-1.1333 2.0999,-2.96663 2.1,-5.5 -10e-5,-2.59996 -0.7001,-4.39996 -2.1,-5.4 -1.4001,-0.99995 -3.8667,-1.49995 -7.4,-1.5 l -8.3,0 0,14.1 8.1,0" />
      </g>
      <g
         id="flowRoot3884"
         style="font-size:40px;font-style:normal;font-variant:normal;font-weight:normal;font-stretch:normal;line-height:125%;letter-spacing:0px;word-spacing:0px;fill:#bbbbbb;fill-opacity:1;stroke:none;font-family:Montserrat;-inkscape-font-specification:Montserrat"
         transform="matrix(1.0293281,0,0,1.0293281,-16.901292,-384.10252)">
        <path
           inkscape:connector-curvature="0"
           id="path3895"
           style="font-size:70px"
           d="m 66.2225,1092.0844 0,7.77 -26.11,0 0,12.95 23.45,0 0,7.35 -23.45,0 0,13.09 26.95,0 0,7.77 -35.21,0 0,-48.93 34.37,0" />
        <path
           inkscape:connector-curvature="0"
           id="path3897"
           style="font-size:70px"
           d="m 84.373281,1141.0144 -7.84,0 0,-51.94 7.84,0 0,51.94" />
        <path
           inkscape:connector-curvature="0"
           id="path3899"
           style="font-size:70px"
           d="m 134.76453,1103.2144 c 4.9933,10e-5 9.2633,1.7267 12.81,5.18 3.54663,3.4534 5.31996,8.0501 5.32,13.79 -4e-5,5.74 -1.77337,10.4067 -5.32,14 -3.50003,3.5934 -7.6067,5.39 -12.32,5.39 -4.66669,0 -8.86668,-2.0533 -12.6,-6.16 l 0,19.18 -7.84,0 0,-50.82 7.84,0 0,6.51 c 3.07998,-4.7133 7.11665,-7.0699 12.11,-7.07 m -12.25,19.25 c -10e-6,3.5467 1.07332,6.4634 3.22,8.75 2.14665,2.24 4.75998,3.36 7.84,3.36 3.07997,0 5.7633,-1.12 8.05,-3.36 2.28663,-2.24 3.42997,-5.1333 3.43,-8.68 -3e-5,-3.5933 -1.12003,-6.5566 -3.36,-8.89 -2.24003,-2.3799 -4.92336,-3.5699 -8.05,-3.57 -3.12669,10e-5 -5.76335,1.1901 -7.91,3.57 -2.14668,2.3334 -3.22001,5.2734 -3.22,8.82" />
        <path
           inkscape:connector-curvature="0"
           id="path3901"
           style="font-size:70px"
           d="m 170.52578,1131.2144 c 2.23998,2.24 5.06332,3.36 8.47,3.36 3.40664,0 6.20664,-1.12 8.4,-3.36 2.23997,-2.2866 3.35997,-5.2266 3.36,-8.82 -3e-5,-3.5933 -1.12003,-6.5099 -3.36,-8.75 -2.19336,-2.2866 -4.99336,-3.4299 -8.4,-3.43 -3.40668,10e-5 -6.23002,1.1434 -8.47,3.43 -2.19334,2.2401 -3.29001,5.1567 -3.29,8.75 -1e-5,3.5934 1.09666,6.5334 3.29,8.82 m 22.47,4.83 c -3.73337,3.6867 -8.40003,5.53 -14,5.53 -5.60002,0 -10.26668,-1.8433 -14,-5.53 -3.73334,-3.7333 -5.6,-8.2833 -5.6,-13.65 0,-5.3666 1.86666,-9.8933 5.6,-13.58 3.73332,-3.7333 8.39998,-5.5999 14,-5.6 5.59997,10e-5 10.26663,1.8667 14,5.6 3.73329,3.6867 5.59996,8.2134 5.6,13.58 -4e-5,5.3667 -1.86671,9.9167 -5.6,13.65" />
        <path
           inkscape:connector-curvature="0"
           id="path3903"
           style="font-size:70px"
           d="m 222.69984,1141.5744 c -4.71335,0 -8.82001,-1.7733 -12.32,-5.32 -3.5,-3.5466 -5.25,-8.2133 -5.25,-14 0,-5.7866 1.79667,-10.4066 5.39,-13.86 3.59332,-3.4533 7.86332,-5.1799 12.81,-5.18 4.99331,10e-5 9.00664,2.1001 12.04,6.3 l 0,-20.44 7.84,0 0,51.94 -7.84,0 0,-5.6 c -2.89336,4.1067 -7.11669,6.16 -12.67,6.16 m -9.73,-18.97 c -1e-5,3.5467 1.14332,6.44 3.43,8.68 2.28665,2.24 4.96998,3.36 8.05,3.36 3.07998,0 5.69331,-1.12 7.84,-3.36 2.14664,-2.2866 3.21997,-5.2033 3.22,-8.75 -3e-5,-3.5466 -1.07336,-6.5099 -3.22,-8.89 -2.14669,-2.3799 -4.78336,-3.5699 -7.91,-3.57 -3.12668,10e-5 -5.81001,1.1901 -8.05,3.57 -2.24001,2.3801 -3.36001,5.3667 -3.36,8.96" />
        <path
           inkscape:connector-curvature="0"
           id="path3905"
           style="font-size:70px"
           d="m 271.06109,1141.5744 c -5.18001,0 -9.63668,-1.75 -13.37,-5.25 -3.73333,-3.5466 -5.6,-8.1666 -5.6,-13.86 0,-5.6933 1.93667,-10.3133 5.81,-13.86 3.91999,-3.5933 8.67999,-5.3899 14.28,-5.39 5.59997,10e-5 10.33664,1.9367 14.21,5.81 l -4.62,5.67 c -3.22003,-2.7999 -6.46336,-4.1999 -9.73,-4.2 -3.26668,10e-5 -6.11335,1.0967 -8.54,3.29 -2.38001,2.1467 -3.57001,4.9467 -3.57,8.4 -10e-6,3.4067 1.18999,6.3 3.57,8.68 2.37999,2.38 5.29665,3.57 8.75,3.57 3.49998,0 6.78997,-1.5866 9.87,-4.76 l 4.62,5.04 c -4.5267,4.5734 -9.75336,6.86 -15.68,6.86" />
        <path
           inkscape:connector-curvature="0"
           id="path3907"
           style="font-size:70px"
           d="m 324.76969,1141.0144 -7.14,0 0,-4.97 c -3.08003,3.6867 -7.21002,5.53 -12.39,5.53 -3.87335,0 -7.09335,-1.0966 -9.66,-3.29 -2.52001,-2.1933 -3.78001,-5.11 -3.78,-8.75 -10e-6,-3.6866 1.35333,-6.4399 4.06,-8.26 2.70665,-1.8199 6.36998,-2.7299 10.99,-2.73 l 10.15,0 0,-1.4 c -3e-5,-4.9466 -2.75336,-7.4199 -8.26,-7.42 -3.45335,10e-5 -7.04668,1.2601 -10.78,3.78 l -3.5,-4.9 c 4.52665,-3.5933 9.65998,-5.3899 15.4,-5.39 4.38664,10e-5 7.95664,1.1201 10.71,3.36 2.79996,2.1934 4.19996,5.6701 4.2,10.43 l 0,24.01 m -7.84,-13.86 0,-3.15 -8.82,0 c -5.64668,0 -8.47001,1.7734 -8.47,5.32 -10e-6,1.82 0.69999,3.22 2.1,4.2 1.39998,0.9334 3.33665,1.4 5.81,1.4 2.51998,0 4.71331,-0.7 6.58,-2.1 1.86664,-1.4 2.79997,-3.29 2.8,-5.67" />
        <path
           inkscape:connector-curvature="0"
           id="path3909"
           style="font-size:70px"
           d="m 362.28203,1129.8844 c -3e-5,3.5467 -1.28336,6.3934 -3.85,8.54 -2.56669,2.1 -5.85669,3.15 -9.87,3.15 -2.70668,0 -5.53001,-0.49 -8.47,-1.47 -2.89334,-0.98 -5.46,-2.3566 -7.7,-4.13 l 3.78,-6.09 c 4.33999,3.2667 8.53999,4.9 12.6,4.9 1.77331,0 3.17331,-0.3966 4.2,-1.19 1.02664,-0.84 1.53998,-1.89 1.54,-3.15 -2e-5,-1.8666 -2.47335,-3.5466 -7.42,-5.04 -0.37335,-0.14 -0.65335,-0.2333 -0.84,-0.28 -7.74667,-2.0999 -11.62,-5.5999 -11.62,-10.5 0,-3.4533 1.33,-6.2066 3.99,-8.26 2.70666,-2.0999 6.20665,-3.1499 10.5,-3.15 4.29331,10e-5 8.35331,1.2601 12.18,3.78 l -2.94,5.81 c -3.03336,-2.0066 -6.32335,-3.0099 -9.87,-3.01 -1.86668,10e-5 -3.38335,0.3501 -4.55,1.05 -1.16668,0.6534 -1.75001,1.6567 -1.75,3.01 -10e-6,1.2134 0.60666,2.1001 1.82,2.66 0.83999,0.4201 2.00665,0.8167 3.5,1.19 1.53998,0.3734 2.89331,0.7467 4.06,1.12 1.16665,0.3734 2.28664,0.7934 3.36,1.26 1.11998,0.4667 2.30997,1.1201 3.57,1.96 2.51997,1.6801 3.77997,4.2934 3.78,7.84" />
        <path
           inkscape:connector-curvature="0"
           id="path3911"
           style="font-size:70px"
           d="m 380.82219,1110.0744 0,18.9 c -2e-5,1.7734 0.46665,3.1967 1.4,4.27 0.93331,1.0267 2.23998,1.54 3.92,1.54 1.67998,0 3.28997,-0.8166 4.83,-2.45 l 3.22,5.53 c -2.75336,2.4734 -5.81003,3.71 -9.17,3.71 -3.31335,0 -6.16002,-1.1433 -8.54,-3.43 -2.33334,-2.3333 -3.50001,-5.46 -3.5,-9.38 l 0,-18.69 -4.69,0 0,-6.3 4.69,0 0,-11.69 7.84,0 0,11.69 9.8,0 0,6.3 -9.8,0" />
        <path
           inkscape:connector-curvature="0"
           id="path3913"
           style="font-size:70px"
           d="m 439.51062,1103.2144 c 4.99331,10e-5 9.2633,1.7267 12.81,5.18 3.54663,3.4534 5.31996,8.0501 5.32,13.79 -4e-5,5.74 -1.77337,10.4067 -5.32,14 -3.50003,3.5934 -7.60669,5.39 -12.31999,5.39 -4.66669,0 -8.86669,-2.0533 -12.60001,-6.16 l 0,19.18 -7.83999,0 0,-50.82 7.83999,0 0,6.51 c 3.07999,-4.7133 7.11665,-7.0699 12.11,-7.07 m -12.25,19.25 c -1e-5,3.5467 1.07332,6.4634 3.22,8.75 2.14665,2.24 4.75998,3.36 7.84,3.36 3.07998,0 5.76331,-1.12 8.05001,-3.36 2.28663,-2.24 3.42996,-5.1333 3.43,-8.68 -4e-5,-3.5933 -1.12004,-6.5566 -3.36001,-8.89 -2.24003,-2.3799 -4.92336,-3.5699 -8.05,-3.57 -3.12668,10e-5 -5.76335,1.1901 -7.91,3.57 -2.14668,2.3334 -3.22001,5.2734 -3.22,8.82" />
        <path
           inkscape:connector-curvature="0"
           id="path3915"
           style="font-size:70px"
           d="m 496.76188,1141.0144 -7.14001,0 0,-4.97 c -3.08002,3.6867 -7.21002,5.53 -12.39,5.53 -3.87334,0 -7.09334,-1.0966 -9.66,-3.29 -2.52,-2.1933 -3.78,-5.11 -3.78,-8.75 0,-3.6866 1.35333,-6.4399 4.06,-8.26 2.70666,-1.8199 6.36999,-2.7299 10.99001,-2.73 l 10.14999,0 0,-1.4 c -2e-5,-4.9466 -2.75335,-7.4199 -8.26,-7.42 -3.45334,10e-5 -7.04667,1.2601 -10.78,3.78 l -3.5,-4.9 c 4.52666,-3.5933 9.65999,-5.3899 15.4,-5.39 4.38665,10e-5 7.95664,1.1201 10.71,3.36 2.79997,2.1934 4.19997,5.6701 4.20001,10.43 l 0,24.01 m -7.84001,-13.86 0,-3.15 -8.82,0 c -5.64668,0 -8.47001,1.7734 -8.47,5.32 -10e-6,1.82 0.69999,3.22 2.1,4.2 1.39999,0.9334 3.33666,1.4 5.81,1.4 2.51998,0 4.71331,-0.7 6.58,-2.1 1.86664,-1.4 2.79998,-3.29 2.8,-5.67" />
        <path
           inkscape:connector-curvature="0"
           id="path3917"
           style="font-size:70px"
           d="m 527.27422,1111.1244 c -3.87336,10e-5 -6.79002,1.2601 -8.75,3.78 -1.96002,2.5201 -2.94001,5.9034 -2.94,10.15 l 0,15.96 -7.84,0 0,-37.24 7.84,0 0,7.49 c 1.25998,-2.3333 2.96332,-4.2466 5.11,-5.74 2.19331,-1.4933 4.50331,-2.2633 6.93,-2.31 l 0.07,7.91 c -0.14003,10e-5 -0.28003,10e-5 -0.42,0" />
        <path
           inkscape:connector-curvature="0"
           id="path3919"
           style="font-size:70px"
           d="m 565.25797,1141.0144 -7.14,0 0,-4.97 c -3.08003,3.6867 -7.21002,5.53 -12.39,5.53 -3.87335,0 -7.09334,-1.0966 -9.66,-3.29 -2.52001,-2.1933 -3.78,-5.11 -3.78,-8.75 0,-3.6866 1.35333,-6.4399 4.06,-8.26 2.70666,-1.8199 6.36999,-2.7299 10.99,-2.73 l 10.15,0 0,-1.4 c -3e-5,-4.9466 -2.75336,-7.4199 -8.26,-7.42 -3.45335,10e-5 -7.04668,1.2601 -10.78,3.78 l -3.5,-4.9 c 4.52666,-3.5933 9.65998,-5.3899 15.4,-5.39 4.38664,10e-5 7.95664,1.1201 10.71,3.36 2.79996,2.1934 4.19996,5.6701 4.2,10.43 l 0,24.01 m -7.84,-13.86 0,-3.15 -8.82,0 c -5.64668,0 -8.47001,1.7734 -8.47,5.32 -10e-6,1.82 0.69999,3.22 2.1,4.2 1.39998,0.9334 3.33665,1.4 5.81,1.4 2.51998,0 4.71331,-0.7 6.58,-2.1 1.86664,-1.4 2.79997,-3.29 2.8,-5.67" />
        <path
           inkscape:connector-curvature="0"
           id="path3921"
           style="font-size:70px"
           d="m 610.57094,1141.5744 c -4.66669,0 -8.77335,-1.7966 -12.32,-5.39 -3.50001,-3.5933 -5.25001,-8.26 -5.25,-14 -10e-6,-5.7399 1.77333,-10.3366 5.32,-13.79 3.54665,-3.4533 7.81665,-5.1799 12.81,-5.18 4.9933,10e-5 9.02997,2.3567 12.11,7.07 l 0,-6.51 7.84,0 0,50.82 -7.84,0 0,-19.18 c -3.73337,4.1067 -7.95669,6.16 -12.67,6.16 m -9.73,-19.04 c -1e-5,3.5467 1.14332,6.44 3.43,8.68 2.28665,2.24 4.96998,3.36 8.05,3.36 3.07997,0 5.6933,-1.12 7.84,-3.36 2.14663,-2.2866 3.21996,-5.2033 3.22,-8.75 -4e-5,-3.5466 -1.07337,-6.4866 -3.22,-8.82 -2.1467,-2.3799 -4.78336,-3.5699 -7.91,-3.57 -3.12669,10e-5 -5.81002,1.1901 -8.05,3.57 -2.24001,2.3334 -3.36001,5.2967 -3.36,8.89" />
        <path
           inkscape:connector-curvature="0"
           id="path3923"
           style="font-size:70px"
           d="m 668.45219,1123.9344 0,-20.16 7.84,0 0,37.24 -7.84,0 0,-6.79 c -1.26003,2.2867 -3.01003,4.0834 -5.25,5.39 -2.19336,1.3067 -4.57336,1.96 -7.14,1.96 -4.20002,0 -7.60668,-1.2833 -10.22,-3.85 -2.56668,-2.5666 -3.85001,-6.2766 -3.85,-11.13 l 0,-22.82 7.84,0 0,20.44 c -2e-5,6.86 2.84665,10.29 8.54,10.29 2.70664,0 5.0633,-0.8866 7.07,-2.66 2.00663,-1.82 3.00997,-4.4566 3.01,-7.91" />
        <path
           inkscape:connector-curvature="0"
           id="path3925"
           style="font-size:70px"
           d="m 722.31609,1125.8244 -29.19,0 c 0.18666,2.7067 1.42332,4.9 3.71,6.58 2.28665,1.6334 4.89998,2.45 7.84,2.45 4.66664,0 8.21331,-1.47 10.64,-4.41 l 4.48,4.9 c -4.01336,4.1534 -9.24002,6.23 -15.68,6.23 -5.22668,0 -9.68334,-1.7266 -13.37,-5.18 -3.64,-3.5 -5.46,-8.1666 -5.46,-14 0,-5.8799 1.86667,-10.5466 5.6,-14 3.73332,-3.4533 8.11999,-5.1799 13.16,-5.18 5.08664,10e-5 9.40331,1.5401 12.95,4.62 3.54663,3.0334 5.31996,7.2334 5.32,12.6 l 0,5.39 m -29.19,-6.16 21.35,0 c -3e-5,-3.1266 -0.98003,-5.5299 -2.94,-7.21 -1.96002,-1.6799 -4.38669,-2.5199 -7.28,-2.52 -2.84668,10e-5 -5.41335,0.8867 -7.7,2.66 -2.28668,1.7267 -3.43001,4.0834 -3.43,7.07" />
        <path
           inkscape:connector-curvature="0"
           id="path3927"
           style="font-size:70px"
           d="m 766.52984,1141.5744 c -5.18001,0 -9.63668,-1.75 -13.37,-5.25 -3.73333,-3.5466 -5.6,-8.1666 -5.6,-13.86 0,-5.6933 1.93667,-10.3133 5.81,-13.86 3.91999,-3.5933 8.67999,-5.3899 14.28,-5.39 5.59997,10e-5 10.33664,1.9367 14.21,5.81 l -4.62,5.67 c -3.22003,-2.7999 -6.46336,-4.1999 -9.73,-4.2 -3.26668,10e-5 -6.11335,1.0967 -8.54,3.29 -2.38001,2.1467 -3.57001,4.9467 -3.57,8.4 -1e-5,3.4067 1.18999,6.3 3.57,8.68 2.37999,2.38 5.29665,3.57 8.75,3.57 3.49998,0 6.78997,-1.5866 9.87,-4.76 l 4.62,5.04 c -4.5267,4.5734 -9.75336,6.86 -15.68,6.86" />
        <path
           inkscape:connector-curvature="0"
           id="path3929"
           style="font-size:70px"
           d="m 809.87188,1111.1244 c -3.87336,10e-5 -6.79002,1.2601 -8.75,3.78 -1.96002,2.5201 -2.94002,5.9034 -2.94001,10.15 l 0,15.96 -7.84,0 0,-37.24 7.84,0 0,7.49 c 1.25999,-2.3333 2.96332,-4.2466 5.11,-5.74 2.19332,-1.4933 4.50332,-2.2633 6.93,-2.31 l 0.07,7.91 c -0.14002,10e-5 -0.28002,10e-5 -0.41999,0" />
        <path
           inkscape:connector-curvature="0"
           id="path3931"
           style="font-size:70px"
           d="m 852.74578,1125.8244 -29.19,0 c 0.18666,2.7067 1.42332,4.9 3.71,6.58 2.28665,1.6334 4.89998,2.45 7.84,2.45 4.66664,0 8.2133,-1.47 10.64,-4.41 l 4.48,4.9 c -4.01337,4.1534 -9.24003,6.23 -15.68,6.23 -5.22668,0 -9.68334,-1.7266 -13.37,-5.18 -3.64,-3.5 -5.46,-8.1666 -5.46,-14 0,-5.8799 1.86666,-10.5466 5.6,-14 3.73332,-3.4533 8.11998,-5.1799 13.16,-5.18 5.08664,10e-5 9.4033,1.5401 12.95,4.62 3.54663,3.0334 5.31996,7.2334 5.32,12.6 l 0,5.39 m -29.19,-6.16 21.35,0 c -3e-5,-3.1266 -0.98003,-5.5299 -2.94,-7.21 -1.96003,-1.6799 -4.38669,-2.5199 -7.28,-2.52 -2.84668,10e-5 -5.41335,0.8867 -7.7,2.66 -2.28668,1.7267 -3.43001,4.0834 -3.43,7.07" />
        <path
           inkscape:connector-curvature="0"
           id="path3933"
           style="font-size:70px"
           d="m 895.94891,1125.8244 -29.19,0 c 0.18665,2.7067 1.42332,4.9 3.71,6.58 2.28665,1.6334 4.89998,2.45 7.84,2.45 4.66664,0 8.2133,-1.47 10.64,-4.41 l 4.48,4.9 c -4.01337,4.1534 -9.24003,6.23 -15.68,6.23 -5.22669,0 -9.68335,-1.7266 -13.37,-5.18 -3.64001,-3.5 -5.46001,-8.1666 -5.46,-14 -10e-6,-5.8799 1.86666,-10.5466 5.6,-14 3.73332,-3.4533 8.11998,-5.1799 13.16,-5.18 5.08664,10e-5 9.4033,1.5401 12.95,4.62 3.54662,3.0334 5.31996,7.2334 5.32,12.6 l 0,5.39 m -29.19,-6.16 21.35,0 c -4e-5,-3.1266 -0.98004,-5.5299 -2.94,-7.21 -1.96003,-1.6799 -4.3867,-2.5199 -7.28,-2.52 -2.84669,10e-5 -5.41335,0.8867 -7.7,2.66 -2.28668,1.7267 -3.43001,4.0834 -3.43,7.07" />
        <path
           inkscape:connector-curvature="0"
           id="path3935"
           style="font-size:70px"
           d="m 931.03203,1129.8844 c -3e-5,3.5467 -1.28336,6.3934 -3.85,8.54 -2.56669,2.1 -5.85669,3.15 -9.87,3.15 -2.70668,0 -5.53001,-0.49 -8.47,-1.47 -2.89334,-0.98 -5.46,-2.3566 -7.7,-4.13 l 3.78,-6.09 c 4.33999,3.2667 8.53999,4.9 12.6,4.9 1.77331,0 3.17331,-0.3966 4.2,-1.19 1.02664,-0.84 1.53998,-1.89 1.54,-3.15 -2e-5,-1.8666 -2.47335,-3.5466 -7.42,-5.04 -0.37335,-0.14 -0.65335,-0.2333 -0.84,-0.28 -7.74667,-2.0999 -11.62,-5.5999 -11.62,-10.5 0,-3.4533 1.33,-6.2066 3.99,-8.26 2.70666,-2.0999 6.20665,-3.1499 10.5,-3.15 4.29331,10e-5 8.35331,1.2601 12.18,3.78 l -2.94,5.81 c -3.03336,-2.0066 -6.32335,-3.0099 -9.87,-3.01 -1.86668,10e-5 -3.38335,0.3501 -4.55,1.05 -1.16668,0.6534 -1.75001,1.6567 -1.75,3.01 -1e-5,1.2134 0.60666,2.1001 1.82,2.66 0.83999,0.4201 2.00665,0.8167 3.5,1.19 1.53998,0.3734 2.89331,0.7467 4.06,1.12 1.16665,0.3734 2.28664,0.7934 3.36,1.26 1.11998,0.4667 2.30997,1.1201 3.57,1.96 2.51997,1.6801 3.77997,4.2934 3.78,7.84" />
        <path
           inkscape:connector-curvature="0"
           id="path3937"
           style="font-size:70px"
           d="m 938.86219,1136.4644 c -1e-5,-1.4933 0.51333,-2.73 1.54,-3.71 1.02666,-1.0266 2.23999,-1.54 3.64,-1.54 1.39999,0 2.61332,0.5134 3.64,1.54 1.07332,0.98 1.60998,2.17 1.61,3.57 -2e-5,1.4 -0.63002,3.1034 -1.89,5.11 l -4.2,6.93 -4.06,0 2.59,-7.28 c -1.91334,-0.8866 -2.87001,-2.4266 -2.87,-4.62" />
        <path
           inkscape:connector-curvature="0"
           id="path3939"
           style="font-size:70px"
           d="m 993.93031,1141.5744 c -4.71335,0 -8.82001,-1.7733 -12.32,-5.32 -3.5,-3.5466 -5.25,-8.2133 -5.25,-14 0,-5.7866 1.79666,-10.4066 5.39,-13.86 3.59332,-3.4533 7.86332,-5.1799 12.81,-5.18 4.99331,10e-5 9.00659,2.1001 12.03999,6.3 l 0,-20.44 7.84,0 0,51.94 -7.84,0 0,-5.6 c -2.8934,4.1067 -7.11668,6.16 -12.66999,6.16 m -9.73,-18.97 c -10e-6,3.5467 1.14332,6.44 3.43,8.68 2.28665,2.24 4.96998,3.36 8.05,3.36 3.07998,0 5.69329,-1.12 7.83999,-3.36 2.1466,-2.2866 3.22,-5.2033 3.22,-8.75 0,-3.5466 -1.0734,-6.5099 -3.22,-8.89 -2.1467,-2.3799 -4.78335,-3.5699 -7.90999,-3.57 -3.12668,10e-5 -5.81001,1.1901 -8.05,3.57 -2.24001,2.3801 -3.36001,5.3667 -3.36,8.96" />
        <path
           inkscape:connector-curvature="0"
           id="path3941"
           style="font-size:70px"
           d="m 1060.4216,1125.8244 -29.19,0 c 0.1866,2.7067 1.4233,4.9 3.71,6.58 2.2866,1.6334 4.8999,2.45 7.84,2.45 4.6666,0 8.2133,-1.47 10.64,-4.41 l 4.48,4.9 c -4.0134,4.1534 -9.2401,6.23 -15.68,6.23 -5.2267,0 -9.6834,-1.7266 -13.37,-5.18 -3.64,-3.5 -5.46,-8.1666 -5.46,-14 0,-5.8799 1.8666,-10.5466 5.6,-14 3.7333,-3.4533 8.1199,-5.1799 13.16,-5.18 5.0866,10e-5 9.4033,1.5401 12.95,4.62 3.5466,3.0334 5.3199,7.2334 5.32,12.6 l 0,5.39 m -29.19,-6.16 21.35,0 c -10e-5,-3.1266 -0.9801,-5.5299 -2.94,-7.21 -1.9601,-1.6799 -4.3867,-2.5199 -7.28,-2.52 -2.8467,10e-5 -5.4134,0.8867 -7.7,2.66 -2.2867,1.7267 -3.43,4.0834 -3.43,7.07" />
        <path
           inkscape:connector-curvature="0"
           id="path3943"
           style="font-size:70px"
           d="m 1095.5047,1129.8844 c 0,3.5467 -1.2834,6.3934 -3.85,8.54 -2.5667,2.1 -5.8567,3.15 -9.87,3.15 -2.7067,0 -5.53,-0.49 -8.47,-1.47 -2.8934,-0.98 -5.46,-2.3566 -7.7,-4.13 l 3.78,-6.09 c 4.34,3.2667 8.54,4.9 12.6,4.9 1.7733,0 3.1733,-0.3966 4.2,-1.19 1.0266,-0.84 1.54,-1.89 1.54,-3.15 0,-1.8666 -2.4734,-3.5466 -7.42,-5.04 -0.3734,-0.14 -0.6534,-0.2333 -0.84,-0.28 -7.7467,-2.0999 -11.62,-5.5999 -11.62,-10.5 0,-3.4533 1.33,-6.2066 3.99,-8.26 2.7066,-2.0999 6.2066,-3.1499 10.5,-3.15 4.2933,10e-5 8.3533,1.2601 12.18,3.78 l -2.94,5.81 c -3.0334,-2.0066 -6.3234,-3.0099 -9.87,-3.01 -1.8667,10e-5 -3.3834,0.3501 -4.55,1.05 -1.1667,0.6534 -1.75,1.6567 -1.75,3.01 0,1.2134 0.6066,2.1001 1.82,2.66 0.84,0.4201 2.0066,0.8167 3.5,1.19 1.54,0.3734 2.8933,0.7467 4.06,1.12 1.1666,0.3734 2.2866,0.7934 3.36,1.26 1.12,0.4667 2.31,1.1201 3.57,1.96 2.52,1.6801 3.78,4.2934 3.78,7.84" />
        <path
           inkscape:connector-curvature="0"
           id="path3945"
           style="font-size:70px"
           d="m 1134.5548,1141.0144 -7.14,0 0,-4.97 c -3.08,3.6867 -7.21,5.53 -12.39,5.53 -3.8733,0 -7.0933,-1.0966 -9.66,-3.29 -2.52,-2.1933 -3.78,-5.11 -3.78,-8.75 0,-3.6866 1.3534,-6.4399 4.06,-8.26 2.7067,-1.8199 6.37,-2.7299 10.99,-2.73 l 10.15,0 0,-1.4 c 0,-4.9466 -2.7533,-7.4199 -8.26,-7.42 -3.4533,10e-5 -7.0466,1.2601 -10.78,3.78 l -3.5,-4.9 c 4.5267,-3.5933 9.66,-5.3899 15.4,-5.39 4.3867,10e-5 7.9567,1.1201 10.71,3.36 2.8,2.1934 4.2,5.6701 4.2,10.43 l 0,24.01 m -7.84,-13.86 0,-3.15 -8.82,0 c -5.6466,0 -8.47,1.7734 -8.47,5.32 0,1.82 0.7,3.22 2.1,4.2 1.4,0.9334 3.3367,1.4 5.81,1.4 2.52,0 4.7134,-0.7 6.58,-2.1 1.8667,-1.4 2.8,-3.29 2.8,-5.67" />
        <path
           inkscape:connector-curvature="0"
           id="path3947"
           style="font-size:70px"
           d="m 1165.0672,1111.1244 c -3.8734,10e-5 -6.79,1.2601 -8.75,3.78 -1.96,2.5201 -2.94,5.9034 -2.94,10.15 l 0,15.96 -7.84,0 0,-37.24 7.84,0 0,7.49 c 1.26,-2.3333 2.9633,-4.2466 5.11,-5.74 2.1933,-1.4933 4.5033,-2.2633 6.93,-2.31 l 0.07,7.91 c -0.14,10e-5 -0.28,10e-5 -0.42,0" />
        <path
           inkscape:connector-curvature="0"
           id="path3949"
           style="font-size:70px"
           d="m 1192.8211,1111.1244 c -3.8734,10e-5 -6.79,1.2601 -8.75,3.78 -1.96,2.5201 -2.94,5.9034 -2.94,10.15 l 0,15.96 -7.84,0 0,-37.24 7.84,0 0,7.49 c 1.26,-2.3333 2.9633,-4.2466 5.11,-5.74 2.1933,-1.4933 4.5033,-2.2633 6.93,-2.31 l 0.07,7.91 c -0.14,10e-5 -0.28,10e-5 -0.42,0" />
        <path
           inkscape:connector-curvature="0"
           id="path3951"
           style="font-size:70px"
           d="m 1209.0414,1131.2144 c 2.24,2.24 5.0633,3.36 8.47,3.36 3.4066,0 6.2066,-1.12 8.4,-3.36 2.24,-2.2866 3.36,-5.2266 3.36,-8.82 0,-3.5933 -1.12,-6.5099 -3.36,-8.75 -2.1934,-2.2866 -4.9934,-3.4299 -8.4,-3.43 -3.4067,10e-5 -6.23,1.1434 -8.47,3.43 -2.1933,2.2401 -3.29,5.1567 -3.29,8.75 0,3.5934 1.0967,6.5334 3.29,8.82 m 22.47,4.83 c -3.7334,3.6867 -8.4,5.53 -14,5.53 -5.6,0 -10.2667,-1.8433 -14,-5.53 -3.7333,-3.7333 -5.6,-8.2833 -5.6,-13.65 0,-5.3666 1.8667,-9.8933 5.6,-13.58 3.7333,-3.7333 8.4,-5.5999 14,-5.6 5.6,10e-5 10.2666,1.8667 14,5.6 3.7333,3.6867 5.6,8.2134 5.6,13.58 0,5.3667 -1.8667,9.9167 -5.6,13.65" />
        <path
           inkscape:connector-curvature="0"
           id="path3953"
           style="font-size:70px"
           d="m 1253.8655,1141.0144 -7.84,0 0,-51.94 7.84,0 0,51.94" />
        <path
           inkscape:connector-curvature="0"
           id="path3955"
           style="font-size:70px"
           d="m 1273.0061,1141.0144 -7.84,0 0,-51.94 7.84,0 0,51.94" />
        <path
           inkscape:connector-curvature="0"
           id="path3957"
           style="font-size:70px"
           d="m 1318.9567,1125.8244 -29.19,0 c 0.1867,2.7067 1.4233,4.9 3.71,6.58 2.2867,1.6334 4.9,2.45 7.84,2.45 4.6667,0 8.2133,-1.47 10.64,-4.41 l 4.48,4.9 c -4.0133,4.1534 -9.24,6.23 -15.68,6.23 -5.2267,0 -9.6833,-1.7266 -13.37,-5.18 -3.64,-3.5 -5.46,-8.1666 -5.46,-14 0,-5.8799 1.8667,-10.5466 5.6,-14 3.7333,-3.4533 8.12,-5.1799 13.16,-5.18 5.0867,10e-5 9.4033,1.5401 12.95,4.62 3.5466,3.0334 5.32,7.2334 5.32,12.6 l 0,5.39 m -29.19,-6.16 21.35,0 c 0,-3.1266 -0.98,-5.5299 -2.94,-7.21 -1.96,-1.6799 -4.3867,-2.5199 -7.28,-2.52 -2.8467,10e-5 -5.4133,0.8867 -7.7,2.66 -2.2867,1.7267 -3.43,4.0834 -3.43,7.07" />
        <path
           inkscape:connector-curvature="0"
           id="path3959"
           style="font-size:70px"
           d="m 1354.0398,1129.8844 c 0,3.5467 -1.2833,6.3934 -3.85,8.54 -2.5666,2.1 -5.8566,3.15 -9.87,3.15 -2.7066,0 -5.53,-0.49 -8.47,-1.47 -2.8933,-0.98 -5.46,-2.3566 -7.7,-4.13 l 3.78,-6.09 c 4.34,3.2667 8.54,4.9 12.6,4.9 1.7734,0 3.1734,-0.3966 4.2,-1.19 1.0267,-0.84 1.54,-1.89 1.54,-3.15 0,-1.8666 -2.4733,-3.5466 -7.42,-5.04 -0.3733,-0.14 -0.6533,-0.2333 -0.84,-0.28 -7.7466,-2.0999 -11.62,-5.5999 -11.62,-10.5 0,-3.4533 1.33,-6.2066 3.99,-8.26 2.7067,-2.0999 6.2067,-3.1499 10.5,-3.15 4.2934,10e-5 8.3533,1.2601 12.18,3.78 l -2.94,5.81 c -3.0333,-2.0066 -6.3233,-3.0099 -9.87,-3.01 -1.8666,10e-5 -3.3833,0.3501 -4.55,1.05 -1.1666,0.6534 -1.75,1.6567 -1.75,3.01 0,1.2134 0.6067,2.1001 1.82,2.66 0.84,0.4201 2.0067,0.8167 3.5,1.19 1.54,0.3734 2.8934,0.7467 4.06,1.12 1.1667,0.3734 2.2867,0.7934 3.36,1.26 1.12,0.4667 2.31,1.1201 3.57,1.96 2.52,1.6801 3.78,4.2934 3.78,7.84" />
        <path
           inkscape:connector-curvature="0"
           id="path3961"
           style="font-size:70px"
           d="m 162.72133,1243.3544 c -3.40668,0 -6.48667,-1.2366 -9.24,-3.71 l 3.57,-6.37 c 1.63333,1.54 3.31332,2.31 5.04,2.31 1.77332,0 3.19665,-0.63 4.27,-1.89 1.11998,-1.26 1.67998,-2.6366 1.68,-4.13 -2e-5,-0.6533 -5.01668,-13.4166 -15.05,-38.29 l 8.4,0 11.13,27.44 11.13,-27.44 8.4,0 -18.06,44.24 c -1.07336,2.4267 -2.61335,4.34 -4.62,5.74 -2.00668,1.4 -4.22335,2.1 -6.65,2.1" />
        <path
           inkscape:connector-curvature="0"
           id="path3963"
           style="font-size:70px"
           d="m 237.31727,1190.7144 c 4.9933,10e-5 9.26329,1.7267 12.81,5.18 3.54662,3.4534 5.31995,8.0501 5.32,13.79 -5e-5,5.74 -1.77338,10.4067 -5.32,14 -3.50004,3.5934 -7.6067,5.39 -12.32,5.39 -4.66669,0 -8.86669,-2.0533 -12.6,-6.16 l 0,19.18 -7.84,0 0,-50.82 7.84,0 0,6.51 c 3.07998,-4.7133 7.11664,-7.0699 12.11,-7.07 m -12.25,19.25 c -2e-5,3.5467 1.07331,6.4634 3.22,8.75 2.14664,2.24 4.75997,3.36 7.84,3.36 3.07997,0 5.7633,-1.12 8.05,-3.36 2.28663,-2.24 3.42996,-5.1333 3.43,-8.68 -4e-5,-3.5933 -1.12004,-6.5566 -3.36,-8.89 -2.24003,-2.3799 -4.92337,-3.5699 -8.05,-3.57 -3.12669,10e-5 -5.76336,1.1901 -7.91,3.57 -2.14669,2.3334 -3.22002,5.2734 -3.22,8.82" />
        <path
           inkscape:connector-curvature="0"
           id="path3965"
           style="font-size:70px"
           d="m 273.07852,1218.7144 c 2.23998,2.24 5.06331,3.36 8.47,3.36 3.40664,0 6.20663,-1.12 8.4,-3.36 2.23996,-2.2866 3.35996,-5.2266 3.36,-8.82 -4e-5,-3.5933 -1.12004,-6.5099 -3.36,-8.75 -2.19337,-2.2866 -4.99336,-3.4299 -8.4,-3.43 -3.40669,10e-5 -6.23002,1.1434 -8.47,3.43 -2.19335,2.2401 -3.29002,5.1567 -3.29,8.75 -2e-5,3.5934 1.09665,6.5334 3.29,8.82 m 22.47,4.83 c -3.73337,3.6867 -8.40003,5.53 -14,5.53 -5.60002,0 -10.26668,-1.8433 -14,-5.53 -3.73334,-3.7333 -5.60001,-8.2833 -5.6,-13.65 -10e-6,-5.3666 1.86666,-9.8933 5.6,-13.58 3.73332,-3.7333 8.39998,-5.5999 14,-5.6 5.59997,10e-5 10.26663,1.8667 14,5.6 3.73329,3.6867 5.59995,8.2134 5.6,13.58 -5e-5,5.3667 -1.86671,9.9167 -5.6,13.65" />
        <path
           inkscape:connector-curvature="0"
           id="path3967"
           style="font-size:70px"
           d="m 319.1757,1197.5744 0,18.9 c -1e-5,1.7734 0.46665,3.1967 1.4,4.27 0.93332,1.0267 2.23998,1.54 3.92,1.54 1.67998,0 3.28998,-0.8166 4.83,-2.45 l 3.22,5.53 c -2.75336,2.4734 -5.81002,3.71 -9.17,3.71 -3.31335,0 -6.16001,-1.1433 -8.54,-3.43 -2.33334,-2.3333 -3.5,-5.46 -3.5,-9.38 l 0,-18.69 -4.69,0 0,-6.3 4.69,0 0,-11.69 7.84,0 0,11.69 9.8,0 0,6.3 -9.8,0" />
        <path
           inkscape:connector-curvature="0"
           id="path3969"
           style="font-size:70px"
           d="m 373.42352,1213.3244 -29.19,0 c 0.18665,2.7067 1.42332,4.9 3.71,6.58 2.28665,1.6334 4.89998,2.45 7.84,2.45 4.66663,0 8.2133,-1.47 10.64,-4.41 l 4.48,4.9 c -4.01337,4.1534 -9.24003,6.23 -15.68,6.23 -5.22669,0 -9.68335,-1.7266 -13.37,-5.18 -3.64001,-3.5 -5.46001,-8.1666 -5.46,-14 -1e-5,-5.8799 1.86666,-10.5466 5.6,-14 3.73332,-3.4533 8.11998,-5.1799 13.16,-5.18 5.08664,10e-5 9.4033,1.5401 12.95,4.62 3.54662,3.0334 5.31996,7.2334 5.32,12.6 l 0,5.39 m -29.19,-6.16 21.35,0 c -4e-5,-3.1266 -0.98004,-5.5299 -2.94,-7.21 -1.96003,-1.6799 -4.3867,-2.5199 -7.28,-2.52 -2.84669,10e-5 -5.41335,0.8867 -7.7,2.66 -2.28668,1.7267 -3.43002,4.0834 -3.43,7.07" />
        <path
           inkscape:connector-curvature="0"
           id="path3971"
           style="font-size:70px"
           d="m 389.81664,1208.3544 0,20.16 -7.84,0 0,-37.24 7.84,0 0,6.79 c 1.25999,-2.2866 2.98665,-4.0833 5.18,-5.39 2.23998,-1.3066 4.64331,-1.9599 7.21,-1.96 4.19997,10e-5 7.5833,1.2834 10.15,3.85 2.6133,2.5667 3.91996,6.2767 3.92,11.13 l 0,22.82 -7.84,0 0,-20.44 c -3e-5,-6.8599 -2.8467,-10.2899 -8.54,-10.29 -2.70669,10e-5 -5.06335,0.9101 -7.07,2.73 -2.00668,1.7734 -3.01001,4.3867 -3.01,7.84" />
        <path
           inkscape:connector-curvature="0"
           id="path3973"
           style="font-size:70px"
           d="m 443.75055,1229.0744 c -5.18002,0 -9.63668,-1.75 -13.37,-5.25 -3.73334,-3.5466 -5.60001,-8.1666 -5.6,-13.86 -1e-5,-5.6933 1.93666,-10.3133 5.81,-13.86 3.91998,-3.5933 8.67998,-5.3899 14.28,-5.39 5.59997,10e-5 10.33663,1.9367 14.21,5.81 l -4.62,5.67 c -3.22003,-2.7999 -6.46336,-4.1999 -9.73,-4.2 -3.26669,10e-5 -6.11335,1.0967 -8.54,3.29 -2.38002,2.1467 -3.57001,4.9467 -3.57,8.4 -10e-6,3.4067 1.18998,6.3 3.57,8.68 2.37998,2.38 5.29664,3.57 8.75,3.57 3.49997,0 6.78997,-1.5866 9.87,-4.76 l 4.62,5.04 c -4.5267,4.5734 -9.75336,6.86 -15.68,6.86" />
        <path
           inkscape:connector-curvature="0"
           id="path3975"
           style="font-size:70px"
           d="m 475.40258,1228.5144 -7.84,0 0,-37.24 7.84,0 0,37.24 m -7.35,-44.66 c -0.98001,-0.9799 -1.47001,-2.1466 -1.47,-3.5 -1e-5,-1.3533 0.48999,-2.5199 1.47,-3.5 0.97999,-0.9799 2.14666,-1.4699 3.5,-1.47 1.35332,10e-5 2.51999,0.4901 3.5,1.47 0.97998,0.9801 1.46998,2.1467 1.47,3.5 -2e-5,1.3534 -0.49002,2.5201 -1.47,3.5 -0.98001,0.9801 -2.14668,1.4701 -3.5,1.47 -1.35334,10e-5 -2.52001,-0.4899 -3.5,-1.47" />
        <path
           inkscape:connector-curvature="0"
           id="path3977"
           style="font-size:70px"
           d="m 521.3532,1213.3244 -29.19,0 c 0.18666,2.7067 1.42332,4.9 3.71,6.58 2.28665,1.6334 4.89998,2.45 7.84,2.45 4.66664,0 8.21331,-1.47 10.64,-4.41 l 4.48,4.9 c -4.01336,4.1534 -9.24003,6.23 -15.68,6.23 -5.22668,0 -9.68334,-1.7266 -13.37,-5.18 -3.64,-3.5 -5.46,-8.1666 -5.46,-14 0,-5.8799 1.86666,-10.5466 5.6,-14 3.73332,-3.4533 8.11999,-5.1799 13.16,-5.18 5.08664,10e-5 9.40331,1.5401 12.95,4.62 3.54663,3.0334 5.31996,7.2334 5.32,12.6 l 0,5.39 m -29.19,-6.16 21.35,0 c -3e-5,-3.1266 -0.98003,-5.5299 -2.94,-7.21 -1.96002,-1.6799 -4.38669,-2.5199 -7.28,-2.52 -2.84668,10e-5 -5.41335,0.8867 -7.7,2.66 -2.28668,1.7267 -3.43001,4.0834 -3.43,7.07" />
        <path
           inkscape:connector-curvature="0"
           id="path3979"
           style="font-size:70px"
           d="m 556.43633,1217.3844 c -3e-5,3.5467 -1.28337,6.3934 -3.85,8.54 -2.56669,2.1 -5.85669,3.15 -9.87,3.15 -2.70668,0 -5.53001,-0.49 -8.47,-1.47 -2.89334,-0.98 -5.46001,-2.3566 -7.7,-4.13 l 3.78,-6.09 c 4.33999,3.2667 8.53998,4.9 12.6,4.9 1.77331,0 3.17331,-0.3966 4.2,-1.19 1.02664,-0.84 1.53997,-1.89 1.54,-3.15 -3e-5,-1.8666 -2.47336,-3.5466 -7.42,-5.04 -0.37335,-0.14 -0.65335,-0.2333 -0.84,-0.28 -7.74668,-2.0999 -11.62001,-5.5999 -11.62,-10.5 -10e-6,-3.4533 1.32999,-6.2066 3.99,-8.26 2.70665,-2.0999 6.20665,-3.1499 10.5,-3.15 4.29331,10e-5 8.3533,1.2601 12.18,3.78 l -2.94,5.81 c -3.03336,-2.0066 -6.32336,-3.0099 -9.87,-3.01 -1.86669,10e-5 -3.38335,0.3501 -4.55,1.05 -1.16668,0.6534 -1.75001,1.6567 -1.75,3.01 -10e-6,1.2134 0.60665,2.1001 1.82,2.66 0.83998,0.4201 2.00665,0.8167 3.5,1.19 1.53998,0.3734 2.89331,0.7467 4.06,1.12 1.16664,0.3734 2.28664,0.7934 3.36,1.26 1.11997,0.4667 2.30997,1.1201 3.57,1.96 2.51997,1.6801 3.77997,4.2934 3.78,7.84" />
        <path
           inkscape:connector-curvature="0"
           id="path3981"
           style="font-size:70px"
           d="m 594.11711,1197.5744 0,18.9 c -2e-5,1.7734 0.46665,3.1967 1.4,4.27 0.93332,1.0267 2.23998,1.54 3.92,1.54 1.67998,0 3.28998,-0.8166 4.83,-2.45 l 3.22,5.53 c -2.75336,2.4734 -5.81002,3.71 -9.17,3.71 -3.31335,0 -6.16001,-1.1433 -8.54,-3.43 -2.33334,-2.3333 -3.50001,-5.46 -3.5,-9.38 l 0,-18.69 -4.69,0 0,-6.3 4.69,0 0,-11.69 7.84,0 0,11.69 9.8,0 0,6.3 -9.8,0" />
        <path
           inkscape:connector-curvature="0"
           id="path3983"
           style="font-size:70px"
           d="m 639.75492,1211.4344 0,-20.16 7.84,0 0,37.24 -7.84,0 0,-6.79 c -1.26003,2.2867 -3.01003,4.0834 -5.25,5.39 -2.19336,1.3067 -4.57335,1.96 -7.14,1.96 -4.20001,0 -7.60668,-1.2833 -10.22,-3.85 -2.56667,-2.5666 -3.85,-6.2766 -3.85,-11.13 l 0,-22.82 7.84,0 0,20.44 c -10e-6,6.86 2.84665,10.29 8.54,10.29 2.70664,0 5.06331,-0.8866 7.07,-2.66 2.00664,-1.82 3.00997,-4.4566 3.01,-7.91" />
        <path
           inkscape:connector-curvature="0"
           id="path3985"
           style="font-size:70px"
           d="m 698.05945,1190.7144 c 4.99331,10e-5 9.2633,1.7267 12.81,5.18 3.54663,3.4534 5.31996,8.0501 5.32,13.79 -4e-5,5.74 -1.77337,10.4067 -5.32,14 -3.50003,3.5934 -7.60669,5.39 -12.32,5.39 -4.66668,0 -8.86668,-2.0533 -12.6,-6.16 l 0,19.18 -7.84,0 0,-50.82 7.84,0 0,6.51 c 3.07999,-4.7133 7.11665,-7.0699 12.11,-7.07 m -12.25,19.25 c -10e-6,3.5467 1.07332,6.4634 3.22,8.75 2.14665,2.24 4.75998,3.36 7.84,3.36 3.07998,0 5.76331,-1.12 8.05,-3.36 2.28664,-2.24 3.42997,-5.1333 3.43,-8.68 -3e-5,-3.5933 -1.12003,-6.5566 -3.36,-8.89 -2.24003,-2.3799 -4.92336,-3.5699 -8.05,-3.57 -3.12668,10e-5 -5.76335,1.1901 -7.91,3.57 -2.14668,2.3334 -3.22001,5.2734 -3.22,8.82" />
        <path
           inkscape:connector-curvature="0"
           id="path3987"
           style="font-size:70px"
           d="m 732.9807,1228.5144 -7.84,0 0,-51.94 7.84,0 0,51.94" />
        <path
           inkscape:connector-curvature="0"
           id="path3989"
           style="font-size:70px"
           d="m 774.45133,1228.5144 -7.14,0 0,-4.97 c -3.08003,3.6867 -7.21002,5.53 -12.39,5.53 -3.87335,0 -7.09334,-1.0966 -9.66,-3.29 -2.52001,-2.1933 -3.78,-5.11 -3.78,-8.75 0,-3.6866 1.35333,-6.4399 4.06,-8.26 2.70666,-1.8199 6.36998,-2.7299 10.99,-2.73 l 10.15,0 0,-1.4 c -3e-5,-4.9466 -2.75336,-7.4199 -8.26,-7.42 -3.45335,10e-5 -7.04668,1.2601 -10.78,3.78 l -3.5,-4.9 c 4.52665,-3.5933 9.65998,-5.3899 15.4,-5.39 4.38664,10e-5 7.95664,1.1201 10.71,3.36 2.79996,2.1934 4.19996,5.6701 4.2,10.43 l 0,24.01 m -7.84,-13.86 0,-3.15 -8.82,0 c -5.64668,0 -8.47001,1.7734 -8.47,5.32 -10e-6,1.82 0.69999,3.22 2.1,4.2 1.39998,0.9334 3.33665,1.4 5.81,1.4 2.51998,0 4.71331,-0.7 6.58,-2.1 1.86664,-1.4 2.79997,-3.29 2.8,-5.67" />
        <path
           inkscape:connector-curvature="0"
           id="path3991"
           style="font-size:70px"
           d="m 794.68352,1197.5744 0,18.9 c -2e-5,1.7734 0.46665,3.1967 1.4,4.27 0.93331,1.0267 2.23998,1.54 3.92,1.54 1.67997,0 3.28997,-0.8166 4.83,-2.45 l 3.22,5.53 c -2.75336,2.4734 -5.81003,3.71 -9.17,3.71 -3.31335,0 -6.16002,-1.1433 -8.54,-3.43 -2.33335,-2.3333 -3.50001,-5.46 -3.5,-9.38 l 0,-18.69 -4.69,0 0,-6.3 4.69,0 0,-11.69 7.84,0 0,11.69 9.8,0 0,6.3 -9.8,0" />
        <path
           inkscape:connector-curvature="0"
           id="path3993"
           style="font-size:70px"
           d="m 844.45133,1228.5144 -7.14,0 0,-4.97 c -3.08003,3.6867 -7.21002,5.53 -12.39,5.53 -3.87335,0 -7.09334,-1.0966 -9.66,-3.29 -2.52001,-2.1933 -3.78,-5.11 -3.78,-8.75 0,-3.6866 1.35333,-6.4399 4.06,-8.26 2.70666,-1.8199 6.36998,-2.7299 10.99,-2.73 l 10.15,0 0,-1.4 c -3e-5,-4.9466 -2.75336,-7.4199 -8.26,-7.42 -3.45335,10e-5 -7.04668,1.2601 -10.78,3.78 l -3.5,-4.9 c 4.52665,-3.5933 9.65998,-5.3899 15.4,-5.39 4.38664,10e-5 7.95664,1.1201 10.71,3.36 2.79996,2.1934 4.19996,5.6701 4.2,10.43 l 0,24.01 m -7.84,-13.86 0,-3.15 -8.82,0 c -5.64668,0 -8.47001,1.7734 -8.47,5.32 -10e-6,1.82 0.69999,3.22 2.1,4.2 1.39998,0.9334 3.33665,1.4 5.81,1.4 2.51998,0 4.71331,-0.7 6.58,-2.1 1.86664,-1.4 2.79997,-3.29 2.8,-5.67" />
        <path
           inkscape:connector-curvature="0"
           id="path3995"
           style="font-size:70px"
           d="m 864.82023,1188.1944 0,3.08 9.8,0 0,6.3 -9.8,0 0,30.94 -7.84,0 0,-30.94 -4.69,0 0,-6.3 4.69,0 0,-2.87 c 0,-3.9199 1.16666,-7.0233 3.5,-9.31 2.37999,-2.3332 5.22665,-3.4999 8.54,-3.5 3.35998,10e-5 6.41665,1.2368 9.17,3.71 l -3.22,5.53 c -1.54002,-1.6333 -3.15002,-2.4499 -4.83,-2.45 -1.68001,10e-5 -2.98668,0.5367 -3.92,1.61 -0.93334,1.0267 -1.40001,2.4267 -1.4,4.2" />
        <path
           inkscape:connector-curvature="0"
           id="path3997"
           style="font-size:70px"
           d="m 889.95352,1218.7144 c 2.23998,2.24 5.06331,3.36 8.47,3.36 3.40664,0 6.20663,-1.12 8.4,-3.36 2.23996,-2.2866 3.35996,-5.2266 3.36,-8.82 -4e-5,-3.5933 -1.12004,-6.5099 -3.36,-8.75 -2.19337,-2.2866 -4.99336,-3.4299 -8.4,-3.43 -3.40669,10e-5 -6.23002,1.1434 -8.47,3.43 -2.19335,2.2401 -3.29002,5.1567 -3.29,8.75 -2e-5,3.5934 1.09665,6.5334 3.29,8.82 m 22.47,4.83 c -3.73337,3.6867 -8.40003,5.53 -14,5.53 -5.60002,0 -10.26668,-1.8433 -14,-5.53 -3.73334,-3.7333 -5.60001,-8.2833 -5.6,-13.65 -10e-6,-5.3666 1.86666,-9.8933 5.6,-13.58 3.73332,-3.7333 8.39998,-5.5999 14,-5.6 5.59997,10e-5 10.26663,1.8667 14,5.6 3.73329,3.6867 5.59995,8.2134 5.6,13.58 -5e-5,5.3667 -1.86671,9.9167 -5.6,13.65" />
        <path
           inkscape:connector-curvature="0"
           id="path3999"
           style="font-size:70px"
           d="m 946.46758,1198.6244 c -3.87336,10e-5 -6.79002,1.2601 -8.75,3.78 -1.96002,2.5201 -2.94002,5.9034 -2.94,10.15 l 0,15.96 -7.84,0 0,-37.24 7.84,0 0,7.49 c 1.25998,-2.3333 2.96331,-4.2466 5.11,-5.74 2.19331,-1.4933 4.50331,-2.2633 6.93,-2.31 l 0.07,7.91 c -0.14003,10e-5 -0.28003,10e-5 -0.42,0" />
        <path
           inkscape:connector-curvature="0"
           id="path4001"
           style="font-size:70px"
           d="m 962.53148,1208.3544 0,20.16 -7.84,0 0,-37.24 7.84,0 0,6.79 c 1.11999,-2.2866 2.79999,-4.0833 5.04,-5.39 2.28665,-1.3066 4.73665,-1.9599 7.35,-1.96 5.87997,10e-5 9.86997,2.4267 11.97,7.28 3.68663,-4.8533 8.28329,-7.2799 13.79002,-7.28 4.1999,10e-5 7.5833,1.2834 10.15,3.85 2.6133,2.5667 3.9199,6.2767 3.92,11.13 l 0,22.82 -7.84,0 0,-20.44 c -1e-4,-6.8599 -2.8467,-10.2899 -8.54002,-10.29 -2.66004,10e-5 -4.99337,0.8634 -7,2.59 -1.96004,1.6801 -2.9867,4.1534 -3.08,7.42 l 0,20.72 -7.84,0 0,-20.44 c -3e-5,-3.5466 -0.63003,-6.1366 -1.89,-7.77 -1.26002,-1.6799 -3.24336,-2.5199 -5.95,-2.52 -2.70668,10e-5 -5.06335,0.9101 -7.07,2.73 -2.00668,1.7734 -3.01001,4.3867 -3.01,7.84" />
        <path
           inkscape:connector-curvature="0"
           id="path4003"
           style="font-size:70px"
           d="m 1055.8185,1228.5144 -7.14,0 0,-4.97 c -3.08,3.6867 -7.21,5.53 -12.39,5.53 -3.8733,0 -7.0933,-1.0966 -9.66,-3.29 -2.52,-2.1933 -3.78,-5.11 -3.78,-8.75 0,-3.6866 1.3533,-6.4399 4.06,-8.26 2.7067,-1.8199 6.37,-2.7299 10.99,-2.73 l 10.15,0 0,-1.4 c 0,-4.9466 -2.7533,-7.4199 -8.26,-7.42 -3.4533,10e-5 -7.0467,1.2601 -10.78,3.78 l -3.5,-4.9 c 4.5267,-3.5933 9.66,-5.3899 15.4,-5.39 4.3867,10e-5 7.9567,1.1201 10.71,3.36 2.8,2.1934 4.2,5.6701 4.2,10.43 l 0,24.01 m -7.84,-13.86 0,-3.15 -8.82,0 c -5.6467,0 -8.47,1.7734 -8.47,5.32 0,1.82 0.7,3.22 2.1,4.2 1.4,0.9334 3.3367,1.4 5.81,1.4 2.52,0 4.7133,-0.7 6.58,-2.1 1.8667,-1.4 2.8,-3.29 2.8,-5.67" />
        <path
           inkscape:connector-curvature="0"
           id="path4005"
           style="font-size:68px;text-align:center;text-anchor:middle;fill:#bbbbbb"
           d="m 1102.7115,1228.5144 -8.704,0 -12.512,-36.176 7.888,0 8.976,27.336 8.976,-27.336 7.888,0 8.976,27.336 8.976,-27.336 7.888,0 -12.512,36.176 -8.704,0 -8.568,-24.752 -8.568,24.752" />
        <path
           inkscape:connector-curvature="0"
           id="path4007"
           style="font-size:68px;text-align:center;text-anchor:middle;fill:#bbbbbb"
           d="m 1181.4629,1213.7584 -28.356,0 c 0.1813,2.6294 1.3827,4.76 3.604,6.392 2.2213,1.5867 4.76,2.38 7.616,2.38 4.5333,0 7.9787,-1.428 10.336,-4.284 l 4.352,4.76 c -3.8987,4.0347 -8.976,6.052 -15.232,6.052 -5.0773,0 -9.4067,-1.6773 -12.988,-5.032 -3.536,-3.4 -5.304,-7.9333 -5.304,-13.6 0,-5.7119 1.8134,-10.2453 5.44,-13.6 3.6267,-3.3546 7.888,-5.0319 12.784,-5.032 4.9413,10e-5 9.1347,1.4961 12.58,4.488 3.4453,2.9467 5.168,7.0267 5.168,12.24 l 0,5.236 m -28.356,-5.984 20.74,0 c 0,-3.0373 -0.952,-5.3719 -2.856,-7.004 -1.904,-1.6319 -4.2613,-2.4479 -7.072,-2.448 -2.7653,10e-5 -5.2587,0.8614 -7.48,2.584 -2.2213,1.6774 -3.332,3.9667 -3.332,6.868" />
        <path
           inkscape:connector-curvature="0"
           id="path4009"
           style="font-size:68px;text-align:center;text-anchor:middle;fill:#bbbbbb"
           d="m 1209.1517,1191.7944 c 4.8506,10e-5 8.9986,1.6774 12.444,5.032 3.4453,3.3547 5.1679,7.8201 5.168,13.396 -10e-5,5.576 -1.7227,10.1094 -5.168,13.6 -3.4001,3.4907 -7.3894,5.236 -11.968,5.236 -4.5334,0 -8.6134,-1.9946 -12.24,-5.984 l 0,5.44 -7.616,0 0,-50.456 7.616,0 0,20.604 c 2.992,-4.5786 6.9133,-6.8679 11.764,-6.868 m -11.9,18.7 c 0,3.4454 1.0426,6.2787 3.128,8.5 2.0853,2.176 4.624,3.264 7.616,3.264 2.9919,0 5.5986,-1.088 7.82,-3.264 2.2213,-2.176 3.3319,-4.9866 3.332,-8.432 -10e-5,-3.4906 -1.0881,-6.3693 -3.264,-8.636 -2.1761,-2.3119 -4.7827,-3.4679 -7.82,-3.468 -3.0374,10e-5 -5.5987,1.1561 -7.684,3.468 -2.0854,2.2667 -3.128,5.1227 -3.128,8.568" />
      </g>
    </g>
  </g>
</svg>
